<?xml version="1.0" encoding="utf-8"?>
<svg class="svg-icons-defs" xmlns="http://www.w3.org/2000/svg" xmlns:xlink="http://www.w3.org/1999/xlink">

    <symbol id="svg-account" viewBox="0 0 35 35">
        <title>account</title>
        <path d="M29.113,22.781a2.883,2.883,0,0,0-1.3-.439,3.022,3.022,0,0,0-.828.045,9.124,9.124,0,0,0-8.456-5.71H13.785A9.127,9.127,0,0,0,4.657,25.8a3.313,3.313,0,0,0,3.312,3.313H22.64c.359.389.731.769,1.1,1.146l.272.275c.326.329.651.658.967.988a.5.5,0,0,0,.723,0c.328-.344.667-.684,1.007-1.025.306-.306.611-.613.913-.926a19.281,19.281,0,0,0,1.821-2.137,4.516,4.516,0,0,0,.895-2.345A2.507,2.507,0,0,0,29.113,22.781ZM7.969,28.117A2.312,2.312,0,0,1,5.657,25.8a8.127,8.127,0,0,1,8.128-8.128h4.744a8.124,8.124,0,0,1,7.519,5.058,2.872,2.872,0,0,0-.48.346,2.807,2.807,0,0,0-.224.221,2.9,2.9,0,0,0-1.387-.865,2.935,2.935,0,0,0-2.385.346,2.506,2.506,0,0,0-1.228,2.313,4.516,4.516,0,0,0,.9,2.345c.164.231.339.457.521.679Zm20.662-1.259A18.274,18.274,0,0,1,26.9,28.881c-.3.308-.6.611-.9.913q-.333.334-.66.667-.306-.313-.617-.627l-.271-.275c-.415-.42-.829-.844-1.227-1.279-.21-.23-.417-.465-.615-.7s-.383-.474-.559-.72a3.508,3.508,0,0,1-.71-1.808,1.516,1.516,0,0,1,.767-1.428,1.949,1.949,0,0,1,1.574-.225,1.858,1.858,0,0,1,1.2,1.016.5.5,0,0,0,.912,0,1.718,1.718,0,0,1,.432-.585,1.945,1.945,0,0,1,.621-.369h0a1.989,1.989,0,0,1,.876-.121,1.852,1.852,0,0,1,.846.285,1.514,1.514,0,0,1,.766,1.429A3.51,3.51,0,0,1,28.631,26.858ZM16.157,15.073A5.878,5.878,0,1,0,12,13.351,5.838,5.838,0,0,0,16.157,15.073ZM12.709,5.748A4.876,4.876,0,1,1,11.28,9.2,4.844,4.844,0,0,1,12.709,5.748Z"/>
    </symbol>

    <symbol id="svg-account-active" viewBox="0 0 35 35">
        <title>account active</title>
        <path d="M26.089,21.626a.5.5,0,0,1-.689-.156,8.083,8.083,0,0,0-6.869-3.8H13.786A8.138,8.138,0,0,0,5.658,25.8,2.315,2.315,0,0,0,7.97,28.115H20.314a.5.5,0,0,1,0,1H7.97A3.317,3.317,0,0,1,4.658,25.8a9.138,9.138,0,0,1,9.128-9.128H18.53a9.078,9.078,0,0,1,7.715,4.263A.5.5,0,0,1,26.089,21.626ZM10.282,9.194a5.876,5.876,0,1,1,5.876,5.877A5.882,5.882,0,0,1,10.282,9.194Zm1,0a4.876,4.876,0,1,0,4.876-4.876A4.882,4.882,0,0,0,11.282,9.194Z"/>
        <path fill="#d50642" d="M29.446,27.439a25.079,25.079,0,0,1-2.74,3.07c-.339.34-.675.677-1,1.019a.5.5,0,0,1-.723,0c-.326-.342-.662-.679-1-1.019a25.079,25.079,0,0,1-2.74-3.07,4.024,4.024,0,0,1-.849-2.984,2.544,2.544,0,0,1,1.181-1.672A2.943,2.943,0,0,1,24,22.448a2.9,2.9,0,0,1,1.347.854,2.9,2.9,0,0,1,1.347-.854,2.942,2.942,0,0,1,2.424.335,2.544,2.544,0,0,1,1.181,1.672A4.024,4.024,0,0,1,29.446,27.439Z"/>
    </symbol>

    <symbol id="svg-arrow-down" viewBox="0 0 35 35">
        <title>arrow down</title>
        <path d="M7.655,12.238a.5.5,0,0,1,.707.018l8.98,9.425,9.3-9.432a.5.5,0,1,1,.712.7l-9.664,9.8a.5.5,0,0,1-.718-.007l-9.336-9.8a.5.5,0,0,1,.018-.707Z"/>
    </symbol>

    <symbol id="svg-arrow-left" viewBox="0 0 35 35">
        <title>arrow left</title>
        <path d="M22.4,27.5a.5.5,0,0,1-.345-.138l-9.8-9.336a.5.5,0,0,1-.007-.718l9.8-9.664a.5.5,0,1,1,.7.712l-9.432,9.3,9.425,8.98a.5.5,0,0,1-.345.862Z"/>
    </symbol>

    <symbol id="svg-arrow-right" viewBox="0 0 35 35">
        <title>arrow right</title>
        <path d="M12.6,27.5a.5.5,0,0,1-.345-.862l9.425-8.98-9.432-9.3a.5.5,0,1,1,.7-.712l9.8,9.664a.5.5,0,0,1-.007.718l-9.8,9.336A.5.5,0,0,1,12.6,27.5Z"/>
    </symbol>

    <symbol id="svg-arrow-up" viewBox="0 0 35 35">
        <title>arrow up</title>
        <path d="M27.345,22.762a.5.5,0,0,1-.707-.018l-8.98-9.425-9.3,9.432a.5.5,0,1,1-.712-.7l9.664-9.8a.5.5,0,0,1,.718.007l9.336,9.8a.5.5,0,0,1-.018.707Z"/>
    </symbol>

    <symbol id="svg-bag" viewBox="0 0 35 35">
        <title>bag</title>
        <path d="M27.393,12.405a1.626,1.626,0,0,0-1.625-1.549h-1.8V9.941a6.442,6.442,0,0,0-12.884,0v.915H9.232a1.626,1.626,0,0,0-1.625,1.549L6.771,29.794A1.626,1.626,0,0,0,8.395,31.5H26.605a1.626,1.626,0,0,0,1.624-1.706Zm-15.3-2.464a5.442,5.442,0,0,1,10.884,0v.915H12.088ZM27.059,30.306a.621.621,0,0,1-.453.194H8.395a.628.628,0,0,1-.626-.657l.837-17.389a.628.628,0,0,1,.627-.6h1.855v2.471a.5.5,0,0,0,1,0V11.856H22.972v2.471a.5.5,0,0,0,1,0V11.856h1.8a.628.628,0,0,1,.627.6l.837,17.389A.621.621,0,0,1,27.059,30.306Z"/>
    </symbol>

    <symbol id="svg-bopis" viewBox="0 0 60 35">
        <title>bopis</title>
        <path d="M9.786,13.189H7.054a.5.5,0,1,1,0-1H9.286V8.839a.5.5,0,0,1,1,0v3.85A.5.5,0,0,1,9.786,13.189ZM56.2,15.343a.5.5,0,0,1-.488.609H54.026V30.327a.5.5,0,0,1-.5.5H9.839a.5.5,0,0,1-.5-.5V18.666h0a6,6,0,1,1,5.778-8.714h1.746l13.65-5.59a2.53,2.53,0,0,1,1.9-.011l14.148,5.6h8.035a.5.5,0,0,1,.488.391Zm-7.639-.391h1.731v-4H48.563Zm-2.731,0h1.731v-4H45.832Zm-26.328-5H43.842l-11.8-4.671a1.53,1.53,0,0,0-1.149.007Zm23.6,1v4h1.731v-4Zm-5.463,0v4h1.731v-4Zm-2.731,0v4h1.731v-4Zm-2.731,0v4h1.731v-4Zm-2.731,0v4h1.731v-4Zm-2.731,0v4h1.731v-4Zm-2.731,0v4h1.731v-4Zm-5.463,4h1.731v-4H18.517Zm-2.731,0h1.731v-4H15.786Zm-6,2.736a5,5,0,1,0-5-5A5.005,5.005,0,0,0,9.786,17.689Zm12.3-1.736H14.814a6,6,0,0,1-4.475,2.708V29.827H22.088Zm.893-5H21.249v4H22.98ZM35.2,18.758H28.227V29.827H35.2Zm5.5-2.806H23.088V29.827h4.14V18.258a.5.5,0,0,1,.5-.5H35.7a.5.5,0,0,1,.5.5V29.827h4.5Zm.5-1h.9v-4H40.369v4Zm11.825,1H41.7V29.827H53.026Zm0-5H51.295v4h1.731Zm2.063,4-.9-4h-.167v4ZM12.91,25.6V19.015a.5.5,0,0,1,.5-.5h5.474a.5.5,0,0,1,.5.5V25.6a.5.5,0,0,1-.5.5H13.41A.5.5,0,0,1,12.91,25.6Zm1-.5h4.474V19.515H13.91Zm30.416.5V19.015a.5.5,0,0,1,.5-.5H50.3a.5.5,0,0,1,.5.5V25.6a.5.5,0,0,1-.5.5H44.826A.5.5,0,0,1,44.326,25.6Zm1-.5H49.8V19.515H45.326Z"/>
    </symbol>

    <symbol id="svg-chat" viewBox="0 0 35 35">
        <title>chat</title>
        <path d="M30.61,6.82H17.391a2.9,2.9,0,0,0-2.891,2.9v1.1H4.391a2.9,2.9,0,0,0-2.891,2.9v7.2a2.9,2.9,0,0,0,2.891,2.9H4.5V28.18l7.633-4.361H17.61a2.9,2.9,0,0,0,2.89-2.9v-1.1h2.367L30.5,24.18V19.819h.11a2.9,2.9,0,0,0,2.89-2.9v-7.2A2.9,2.9,0,0,0,30.61,6.82ZM19.5,20.92a1.9,1.9,0,0,1-1.89,1.9H11.867L5.5,26.458V22.819H4.391A1.9,1.9,0,0,1,2.5,20.92v-7.2a1.9,1.9,0,0,1,1.891-1.9H14.5v5.1a2.9,2.9,0,0,0,2.891,2.9H19.5Zm0-2.1H17.391a1.9,1.9,0,0,1-1.891-1.9v-5.1h2.11a1.9,1.9,0,0,1,1.89,1.9Zm13-1.9a1.9,1.9,0,0,1-1.89,1.9H29.5v3.639l-6.367-3.639H20.5v-5.1a2.9,2.9,0,0,0-2.89-2.9H15.5v-1.1a1.9,1.9,0,0,1,1.891-1.9H30.61a1.9,1.9,0,0,1,1.89,1.9Z"/>
    </symbol>

    <symbol id="svg-check" viewBox="0 0 30 24">
        <title id="title">checked</title>
        <desc id="dsc">Available for DSW Rewards</desc>
        <path d="M10 24L0 14l4-4 6 6L26 0l4 4" fill-rule="evenodd"/>
    </symbol>

    <symbol id="svg-checkmark" viewBox="0 0 35 35">
        <title>checkmark</title>
        <path d="M28.554,11.448,13.017,26.781,6.394,19.556l2.211-2.027,4.52,4.931L26.446,9.313Z"/>
    </symbol>

    <symbol id="svg-clock" viewBox="0 0 35 35">
        <title>clock</title>
        <path d="M17.5,4.5a13,13,0,1,0,13,13A13.015,13.015,0,0,0,17.5,4.5Zm0,25a12,12,0,1,1,12-12A12.013,12.013,0,0,1,17.5,29.5ZM18,8.75V17.5a.5.5,0,0,1-.5.5H11.292a.5.5,0,1,1,0-1H17V8.75a.5.5,0,0,1,1,0Z"/>
    </symbol>

    <symbol id="svg-close" viewBox="0 0 35 35">
        <title>close</title>
        <path d="M29.359,28.681a.48.48,0,1,1-.679.679L17.5,18.179,6.319,29.359a.48.48,0,0,1-.679-.679L16.821,17.5,5.641,6.319a.48.48,0,0,1,.679-.679L17.5,16.821,28.681,5.641a.48.48,0,0,1,.679.679L18.179,17.5Z"/>
    </symbol>

    <symbol id="svg-dollar" viewBox="0 0 35 35">
        <title>dollar</title>
        <path d="M21.386,18.712a3.179,3.179,0,0,0-1.211-1.05,9.42,9.42,0,0,0-1.979-.7V12.769a3.013,3.013,0,0,1,1.449.607,2.015,2.015,0,0,1,.827,1.643h0l0,.016a.623.623,0,1,0,1.246,0l0-.016h0a2.991,2.991,0,0,0-1.139-2.429A4.323,4.323,0,0,0,18.2,11.7V9.99a.533.533,0,1,0-1.066,0v1.7a4.315,4.315,0,0,0-2.421.84,2.679,2.679,0,0,0-1.114,2.2,2.505,2.505,0,0,0,.4,1.435,3.1,3.1,0,0,0,1.227,1,9.236,9.236,0,0,0,1.906.631v4.452a3.459,3.459,0,0,1-1.74-.579,2.163,2.163,0,0,1-.92-1.7h0l0-.009a.623.623,0,1,0-1.246,0l0,.009h0a2.928,2.928,0,0,0,1.223,2.407,4.8,4.8,0,0,0,2.686.92V25.01a.533.533,0,1,0,1.066,0V23.3a4.694,4.694,0,0,0,2.316-.735,2.971,2.971,0,0,0,1.256-2.691A2.532,2.532,0,0,0,21.386,18.712ZM17.13,16.686a5.343,5.343,0,0,1-1.667-.693,1.537,1.537,0,0,1-.618-1.306,1.686,1.686,0,0,1,.743-1.419,3.006,3.006,0,0,1,1.542-.521Zm2.6,5.022a3.2,3.2,0,0,1-1.537.539V18.056a4.828,4.828,0,0,1,1.594.718,1.772,1.772,0,0,1,.744,1.487A1.719,1.719,0,0,1,19.733,21.708Z"/>
    </symbol>

    <symbol id="svg-drop-arrow" viewBox="0 0 35 35">
        <title>drop arrow</title>
        <path fill="#7f7f7f" d="M23.694,15.308l-5.506,5.505a1,1,0,0,1-1.414,0l-5.469-5.469L12.72,13.93l4.762,4.762,4.8-4.8Z"/>
    </symbol>

    <symbol id="svg-dsw-desktop-logo" viewBox="0 0 91 42">
        <title>dsw desktop logo</title>
        <path d="M14.119,4.023c-2.131,0-4.371.106-5.476.106-1,0-3.238-.106-5.125-.106-.535,0-.779.073-.779.319s.207.322.6.322a7.4,7.4,0,0,1,1.387.106c1.177.25,1.461.817,1.532,2.028.071,1.139.071,2.135.071,7.542V20.6c0,3.273,0,6.083-.18,7.58-.139,1.029-.316,1.812-1.031,1.954a5.577,5.577,0,0,1-1.28.143c-.426,0-.57.106-.57.284,0,.25.25.359.714.359.71,0,1.635-.076,2.454-.076.85-.033,1.635-.033,2.024-.033.9,0,2.139.109,3.491.215s2.813.213,4.09.213c6.579,0,10.284-2.525,11.915-4.2a14.1,14.1,0,0,0,3.881-9.922,12.74,12.74,0,0,0-3.449-9.039C24.509,4.023,18.564,4.023,14.119,4.023Zm9.963,22.984c-2.136,1.852-4.552,2.561-8.182,2.561-2.808,0-4.2-.746-4.66-1.423a7.74,7.74,0,0,1-.389-2.7c-.041-.68-.074-3.415-.074-7.189V13.774c0-2.81,0-5.907.033-7.116a.648.648,0,0,1,.43-.712,9.462,9.462,0,0,1,2.313-.251c2.773,0,6.832.427,10.1,3.558a12.091,12.091,0,0,1,3.415,8.9C27.069,21.813,26.359,25.051,24.082,27.007ZM47.329,23.77a7.175,7.175,0,0,1-3.347,6.189,10.276,10.276,0,0,1-5.659,1.454,12.365,12.365,0,0,1-5.194-.919c-.566-.249-.672-.432-.672-1.209,0-1.958.141-4.091.179-4.661.03-.534.138-.925.426-.925.32,0,.359.319.359.6a7.5,7.5,0,0,0,.318,1.817,4.9,4.9,0,0,0,5.088,3.592c3.2,0,4.765-2.172,4.765-4.057,0-1.742-.534-3.381-3.488-5.7l-1.636-1.28c-3.912-3.058-5.264-5.548-5.264-8.432,0-3.91,3.276-6.72,8.218-6.72a17.239,17.239,0,0,1,4.734.6c.321.071.493.182.493.428,0,.461-.142,1.5-.142,4.269,0,.782-.106,1.071-.389,1.071-.245,0-.354-.219-.354-.644a4.3,4.3,0,0,0-.927-2.35,4.5,4.5,0,0,0-3.873-1.74c-2.638,0-4.238,1.53-4.238,3.663,0,1.635.819,2.884,3.776,5.122l1,.749C45.8,17.934,47.329,20.39,47.329,23.77ZM88.26,4.309c0,.248-.184.354-.5.354a3.9,3.9,0,0,0-1.244.176c-.859.324-1.251,1.748-1.994,3.774-1.639,4.483-5.374,15.8-7.117,21.132-.392,1.246-.567,1.668-1.031,1.668-.356,0-.568-.422-1.1-1.736l-7.4-17.829H67.8C67.13,13.665,62.4,26.26,60.872,29.53c-.682,1.461-.861,1.883-1.286,1.883-.359,0-.5-.384-.819-1.312L51.226,7.51a5.318,5.318,0,0,0-1.313-2.526,3.16,3.16,0,0,0-1.426-.322c-.357,0-.569-.033-.569-.322,0-.245.281-.318.781-.318,1.851,0,3.8.106,4.127.106s1.883-.106,3.948-.106c.5,0,.745.106.745.318,0,.289-.282.322-.637.322a1.88,1.88,0,0,0-.894.144c-.322.143-.386.39-.386.781a22.576,22.576,0,0,0,.783,3.277c.6,2.347,3.91,13.125,4.554,15.117h.109l6.9-18.536c.358-1,.6-1.28.887-1.28.394,0,.568.531,1.031,1.673l7.4,17.895h.1c.644-2.383,3.49-11.775,4.737-15.937a7.606,7.606,0,0,0,.355-2.068c0-.567-.323-1.067-1.712-1.067-.351,0-.6-.106-.6-.322,0-.245.285-.318.815-.318,1.891,0,3.382.106,3.7.106.248,0,1.777-.106,2.95-.106C88.01,4.023,88.26,4.1,88.26,4.309ZM4.83,38.065h-1.4c-.012,0-.018,0-.018-.018V34.132c0-.019.006-.024.023-.024h1.38a1.844,1.844,0,0,1,1.067.3,1.965,1.965,0,0,1,.941,1.673A1.989,1.989,0,0,1,4.83,38.065Zm-.023-3.395H3.973V37.5h.869A1.421,1.421,0,0,0,6.264,36.08,1.442,1.442,0,0,0,4.807,34.671Zm5.375,3.4H7.663a.065.065,0,0,1-.03-.023V34.132a.027.027,0,0,1,.023-.019h2.429c.019,0,.024.006.024.019v.521c0,.018-.006.024-.024.024H8.244l-.048.006v.947h1.4c.018,0,.018.006.018.018v.522c0,.018-.012.023-.029.023H8.214a.03.03,0,0,0-.018.03v1.283h1.991c.018,0,.018.006.018.018v.522C10.205,38.065,10.2,38.071,10.182,38.071Zm3.06-1.182a1.227,1.227,0,0,1-.324.852,1.31,1.31,0,0,1-.941.4,1.193,1.193,0,0,1-.455-.09,1.257,1.257,0,0,1-.684-.75l.455-.312c.036.06.066.144.09.186a.8.8,0,0,0,.5.366.481.481,0,0,0,.132.012.592.592,0,0,0,.516-.27.813.813,0,0,0,.12-.414.506.506,0,0,0-.132-.359,3.791,3.791,0,0,0-.978-.564,1.14,1.14,0,0,1-.6-.605.982.982,0,0,1-.042-.294.9.9,0,0,1,.192-.575,1.071,1.071,0,0,1,.852-.42,1.043,1.043,0,0,1,.27.03,1.159,1.159,0,0,1,.714.558c-.145.1-.324.21-.474.317a.6.6,0,0,0-.5-.312.459.459,0,0,0-.126.012.405.405,0,0,0-.288.306.3.3,0,0,0-.006.072.411.411,0,0,0,.234.366c.5.258,1.163.4,1.391,1.025A1.361,1.361,0,0,1,13.241,36.89Zm1.351,1.176h-.521c-.012,0-.018,0-.018-.018V34.132c0-.019.006-.024.023-.024H14.6c.018,0,.018.006.018.019v3.915C14.616,38.06,14.611,38.065,14.592,38.065Zm3.671,0a2.98,2.98,0,0,1-.72.1,2.039,2.039,0,0,1-1.648-.755,2.074,2.074,0,0,1-.444-1.3,2.311,2.311,0,0,1,.084-.605A2.081,2.081,0,0,1,16.9,34.1a2.437,2.437,0,0,1,.672-.084,3.688,3.688,0,0,1,.372.018,2.622,2.622,0,0,1,1.013.33v.678a2.7,2.7,0,0,0-1.4-.45,1.468,1.468,0,0,0-.846.246,1.5,1.5,0,0,0-.642,1.289,2.076,2.076,0,0,0,.018.265,1.56,1.56,0,0,0,1.128,1.181,1.579,1.579,0,0,0,.371.042,1.785,1.785,0,0,0,.882-.239v-.96l-.024-.023-.743-.013v-.533h1.331l.012.018c0,.055-.006.582-.006,1.1,0,.258.006.521.006.72A1.793,1.793,0,0,1,18.263,38.065Zm5.238-.024c0,.019-.007.024-.024.024h-.569s-.019,0-.024-.012l-2.345-3.022v3.01c0,.019-.006.024-.024.024H20c-.018,0-.023-.006-.023-.018V34.132c0-.019.006-.024.023-.024h.522a.065.065,0,0,1,.048.024l2.368,3.04v-3.04c0-.019.006-.024.024-.024h.516a.023.023,0,0,1,.024.024Zm3.541.03H24.524a.065.065,0,0,1-.03-.023V34.132a.027.027,0,0,1,.023-.019h2.429c.019,0,.024.006.024.019v.521c0,.018-.006.024-.024.024H25.1l-.048.006v.947h1.4c.018,0,.018.006.018.018v.522c0,.018-.012.023-.029.023H25.074a.03.03,0,0,0-.018.03v1.283h1.991c.018,0,.018.006.018.018v.522C27.066,38.065,27.06,38.071,27.042,38.071Zm3.852-.006h-.666s-.827-1.109-1.247-1.686h-.54v1.661l-.018.024h-.534l-.012-.036V34.113l.042-.006c.065,0,.138.006.216.006.162,0,.342-.006.491-.006h.084c.672,0,1.338.078,1.56.828a1.194,1.194,0,0,1,.048.323,1.072,1.072,0,0,1-.228.672.837.837,0,0,1-.222.191,1.758,1.758,0,0,1-.246.114v.024c.449.581.852,1.193,1.289,1.78C30.911,38.06,30.906,38.065,30.894,38.065Zm-2.268-3.4h-.161l-.024.019V35.8h.036c.114,0,.246.006.378.006a.858.858,0,0,0,.665-.2.543.543,0,0,0,.15-.365.756.756,0,0,0-.012-.114C29.544,34.7,29.023,34.665,28.626,34.665Zm6.959,2.225a1.227,1.227,0,0,1-.324.852,1.31,1.31,0,0,1-.941.4,1.193,1.193,0,0,1-.455-.09,1.257,1.257,0,0,1-.684-.75l.455-.312c.036.06.066.144.09.186a.8.8,0,0,0,.5.366.481.481,0,0,0,.132.012.592.592,0,0,0,.516-.27.813.813,0,0,0,.12-.414.506.506,0,0,0-.132-.359,3.791,3.791,0,0,0-.978-.564,1.14,1.14,0,0,1-.6-.605.982.982,0,0,1-.042-.294.9.9,0,0,1,.192-.575,1.071,1.071,0,0,1,.852-.42,1.043,1.043,0,0,1,.27.03,1.159,1.159,0,0,1,.714.558c-.145.1-.324.21-.474.317a.6.6,0,0,0-.5-.312.459.459,0,0,0-.126.012.405.405,0,0,0-.288.306.3.3,0,0,0-.006.072.411.411,0,0,0,.234.366c.5.258,1.163.4,1.391,1.025A1.361,1.361,0,0,1,35.585,36.89ZM39.6,38.06h-.516c-.019,0-.024,0-.024-.019V36.177H36.985l-.024.023v1.841c0,.019-.006.024-.024.024H36.42c-.018,0-.023-.006-.023-.024V34.126c0-.019.006-.024.023-.024h.522c.018,0,.018.012.018.024l.006.023v1.409s.006.048.048.054h2.033l.012-.018V34.119a.027.027,0,0,1,.024-.018h.527c.013,0,.013.006.013.012v3.928C39.623,38.06,39.616,38.06,39.6,38.06Zm2.851.09A2.026,2.026,0,0,1,40.6,36.932a2.142,2.142,0,0,1-.168-.845,2.111,2.111,0,0,1,.5-1.4A2.038,2.038,0,0,1,42.491,34a2.363,2.363,0,0,1,.348.023,2.041,2.041,0,0,1,1.313.888,1.957,1.957,0,0,1,.323,1.127,2.21,2.21,0,0,1-.228,1A2.034,2.034,0,0,1,42.449,38.149Zm.516-3.448a1.483,1.483,0,0,0-.51-.09,1.368,1.368,0,0,0-1.02.432,1.537,1.537,0,0,0-.384,1.031,1.64,1.64,0,0,0,.1.564,1.45,1.45,0,0,0,1.019.875,1.281,1.281,0,0,0,.258.024,1.433,1.433,0,0,0,1.434-1.47,1.666,1.666,0,0,0-.107-.588A1.409,1.409,0,0,0,42.965,34.7Zm4.873,3.37H45.32a.065.065,0,0,1-.03-.023V34.132a.027.027,0,0,1,.023-.019h2.429c.019,0,.024.006.024.019v.521c0,.018-.006.024-.024.024H45.9l-.048.006v.947h1.4c.018,0,.018.006.018.018v.522c0,.018-.012.023-.029.023H45.87a.03.03,0,0,0-.018.03v1.283h1.991c.018,0,.018.006.018.018v.522C47.862,38.065,47.856,38.071,47.838,38.071Zm6.508-.03c-.006.007-.012.024-.018.024h-.57c-.012,0-.018-.024-.018-.024l-.869-2.782s-.013.006-.852,2.789c0,.006,0,.018-.013.018H51.39v-.018c-.084-.246-.96-3-1.26-3.887a.116.116,0,0,1-.012-.042.013.013,0,0,1,.012-.012H50.8l.863,2.9s.013.03.019.042c.012-.023.023-.054.023-.054s.563-1.859.846-2.782l.03-.036h.617c.313.9.876,2.765.876,2.765s.737-2.417.846-2.8l.048-.03h.605Zm4.723.024h-.582c-.006,0-.012,0-.012-.012l-.372-.936H56.358c-.371.936-.377.947-.384.947h-.587c-.013,0-.019-.006-.019-.012s.006-.013.006-.019l1.571-3.9c0-.019.03-.024.03-.024h.51a.085.085,0,0,1,.03.024l1.564,3.9C59.08,38.06,59.08,38.065,59.069,38.065Zm-1.841-3.124-.642,1.613h1.289Zm5.5,3.124h-.666s-.827-1.109-1.247-1.686h-.54v1.661l-.018.024h-.534l-.012-.036V34.113l.042-.006c.065,0,.138.006.216.006.162,0,.342-.006.491-.006h.084c.672,0,1.338.078,1.56.828a1.194,1.194,0,0,1,.048.323,1.072,1.072,0,0,1-.228.672.837.837,0,0,1-.222.191,1.758,1.758,0,0,1-.246.114v.024c.449.581.852,1.193,1.289,1.78C62.747,38.06,62.741,38.065,62.73,38.065Zm-2.268-3.4H60.3l-.024.019V35.8h.036c.114,0,.246.006.378.006a.858.858,0,0,0,.665-.2.543.543,0,0,0,.15-.365.756.756,0,0,0-.012-.114C61.38,34.7,60.859,34.665,60.462,34.665Zm5.465,3.406H63.408a.065.065,0,0,1-.03-.023V34.132a.027.027,0,0,1,.023-.019H65.83c.019,0,.024.006.024.019v.521c0,.018-.006.024-.024.024H63.99l-.048.006v.947h1.4c.018,0,.018.006.018.018v.522c0,.018-.012.023-.029.023H63.959a.03.03,0,0,0-.018.03v1.283h1.991c.018,0,.018.006.018.018v.522C65.95,38.065,65.945,38.071,65.927,38.071Zm4.038-.012h-.516c-.019,0-.024,0-.024-.019V36.177H67.351l-.024.023v1.841c0,.019-.006.024-.023.024h-.517c-.018,0-.023-.006-.023-.024V34.126c0-.019.006-.024.023-.024h.522c.018,0,.018.012.018.024l.006.023v1.409s.006.048.048.054h2.033l.012-.018V34.119a.027.027,0,0,1,.024-.018h.527c.012,0,.012.006.012.012v3.928C69.989,38.06,69.983,38.06,69.965,38.06Zm2.851.09a2.026,2.026,0,0,1-1.847-1.218,2.142,2.142,0,0,1-.168-.845,2.111,2.111,0,0,1,.5-1.4A2.038,2.038,0,0,1,72.858,34a2.363,2.363,0,0,1,.348.023,2.041,2.041,0,0,1,1.313.888,1.957,1.957,0,0,1,.323,1.127,2.21,2.21,0,0,1-.228,1A2.034,2.034,0,0,1,72.816,38.149Zm.516-3.448a1.483,1.483,0,0,0-.51-.09,1.368,1.368,0,0,0-1.02.432,1.537,1.537,0,0,0-.384,1.031,1.662,1.662,0,0,0,.1.564,1.454,1.454,0,0,0,1.02.875,1.281,1.281,0,0,0,.258.024,1.433,1.433,0,0,0,1.434-1.47,1.666,1.666,0,0,0-.107-.588A1.409,1.409,0,0,0,73.331,34.7Zm5.783,1.661a1.76,1.76,0,0,1-3.521,0v-2.23c0-.019.007-.024.024-.024h.521c.019,0,.019.006.019.019v2.23a1.2,1.2,0,1,0,2.393,0V34.132c0-.019.006-.024.023-.024H79.1c.018,0,.018.006.018.019Zm3.156.527a1.227,1.227,0,0,1-.324.852,1.31,1.31,0,0,1-.941.4,1.193,1.193,0,0,1-.455-.09,1.257,1.257,0,0,1-.684-.75l.455-.312c.036.06.066.144.09.186a.8.8,0,0,0,.5.366.481.481,0,0,0,.132.012.592.592,0,0,0,.516-.27.813.813,0,0,0,.12-.414.506.506,0,0,0-.132-.359,3.791,3.791,0,0,0-.978-.564,1.14,1.14,0,0,1-.6-.605.982.982,0,0,1-.042-.294.9.9,0,0,1,.192-.575,1.071,1.071,0,0,1,.852-.42,1.043,1.043,0,0,1,.27.03,1.159,1.159,0,0,1,.714.558c-.145.1-.324.21-.474.317a.6.6,0,0,0-.5-.312.459.459,0,0,0-.126.012.405.405,0,0,0-.288.306.3.3,0,0,0-.006.072.411.411,0,0,0,.234.366c.5.258,1.163.4,1.391,1.025A1.361,1.361,0,0,1,82.271,36.89Zm3.36,1.182H83.113a.065.065,0,0,1-.03-.023V34.132a.027.027,0,0,1,.023-.019h2.429c.019,0,.024.006.024.019v.521c0,.018-.006.024-.024.024H83.694l-.048.006v.947h1.4c.018,0,.018.006.018.018v.522c0,.018-.012.023-.029.023H83.663a.03.03,0,0,0-.018.03v1.283h1.991c.018,0,.018.006.018.018v.522C85.655,38.065,85.649,38.071,85.631,38.071ZM87.99,34a1.075,1.075,0,1,0,1.07,1.072A1.076,1.076,0,0,0,87.99,34Zm0,2.02a.944.944,0,1,1,.939-.948A.946.946,0,0,1,87.99,36.02Zm.551-1.23a.291.291,0,0,0-.136-.258.552.552,0,0,0-.292-.06h-.522v1.2h.147V35.12h.269l.344.554h.174l-.361-.554C88.375,35.114,88.541,35.027,88.541,34.79Zm-.579.216h-.224v-.424h.344c.148,0,.312.022.312.207C88.393,35.032,88.131,35.006,87.962,35.006Z"/>
    </symbol>

    <symbol id="svg-dsw-logo" viewBox="0 0 91 35">
        <title>dsw logo</title>
        <path d="M14.119,4.023c-2.131,0-4.371.106-5.476.106-1,0-3.238-.106-5.125-.106-.535,0-.779.073-.779.319s.207.322.6.322a7.4,7.4,0,0,1,1.387.106c1.177.25,1.461.817,1.532,2.028.071,1.139.071,2.135.071,7.542V20.6c0,3.273,0,6.083-.18,7.58-.139,1.029-.316,1.812-1.031,1.954a5.577,5.577,0,0,1-1.28.143c-.426,0-.57.106-.57.284,0,.25.25.359.714.359.71,0,1.635-.076,2.454-.076.85-.033,1.635-.033,2.024-.033.9,0,2.139.109,3.491.215s2.813.213,4.09.213c6.579,0,10.284-2.525,11.915-4.2a14.1,14.1,0,0,0,3.881-9.922,12.74,12.74,0,0,0-3.449-9.039C24.509,4.023,18.564,4.023,14.119,4.023Zm9.963,22.984c-2.136,1.852-4.552,2.561-8.182,2.561-2.808,0-4.2-.746-4.66-1.423a7.74,7.74,0,0,1-.389-2.7c-.041-.68-.074-3.415-.074-7.189V13.774c0-2.81,0-5.907.033-7.116a.648.648,0,0,1,.43-.712,9.462,9.462,0,0,1,2.313-.251c2.773,0,6.832.427,10.1,3.558a12.091,12.091,0,0,1,3.415,8.9C27.069,21.813,26.359,25.051,24.082,27.007ZM47.329,23.77a7.175,7.175,0,0,1-3.347,6.189,10.276,10.276,0,0,1-5.659,1.454,12.365,12.365,0,0,1-5.194-.919c-.566-.249-.672-.432-.672-1.209,0-1.958.141-4.091.179-4.661.03-.534.138-.925.426-.925.32,0,.359.319.359.6a7.5,7.5,0,0,0,.318,1.817,4.9,4.9,0,0,0,5.088,3.592c3.2,0,4.765-2.172,4.765-4.057,0-1.742-.534-3.381-3.488-5.7l-1.636-1.28c-3.912-3.058-5.264-5.548-5.264-8.432,0-3.91,3.276-6.72,8.218-6.72a17.239,17.239,0,0,1,4.734.6c.321.071.493.182.493.428,0,.461-.142,1.5-.142,4.269,0,.782-.106,1.071-.389,1.071-.245,0-.354-.219-.354-.644a4.3,4.3,0,0,0-.927-2.35,4.5,4.5,0,0,0-3.873-1.74c-2.638,0-4.238,1.53-4.238,3.663,0,1.635.819,2.884,3.776,5.122l1,.749C45.8,17.934,47.329,20.39,47.329,23.77Zm36.829,1.012a3.345,3.345,0,1,0,3.329,3.336A3.349,3.349,0,0,0,84.158,24.782Zm0,6.286a2.939,2.939,0,1,1,2.922-2.95A2.945,2.945,0,0,1,84.158,31.068Zm4.1-26.759c0,.248-.184.354-.5.354a3.9,3.9,0,0,0-1.244.176c-.859.324-1.251,1.748-1.994,3.774-1.639,4.483-5.374,15.8-7.117,21.132-.392,1.246-.567,1.668-1.031,1.668-.356,0-.568-.422-1.1-1.736l-7.4-17.829H67.8C67.13,13.665,62.4,26.26,60.872,29.53c-.682,1.461-.861,1.883-1.286,1.883-.359,0-.5-.384-.819-1.312L51.226,7.51a5.318,5.318,0,0,0-1.313-2.526,3.16,3.16,0,0,0-1.426-.322c-.357,0-.569-.033-.569-.322,0-.245.281-.318.781-.318,1.851,0,3.8.106,4.127.106s1.883-.106,3.948-.106c.5,0,.745.106.745.318,0,.289-.282.322-.637.322a1.88,1.88,0,0,0-.894.144c-.322.143-.386.39-.386.781a22.576,22.576,0,0,0,.783,3.277c.6,2.347,3.91,13.125,4.554,15.117h.109l6.9-18.536c.358-1,.6-1.28.887-1.28.394,0,.568.531,1.031,1.673l7.4,17.895h.1c.644-2.383,3.49-11.775,4.737-15.937a7.606,7.606,0,0,0,.355-2.068c0-.567-.323-1.067-1.712-1.067-.351,0-.6-.106-.6-.322,0-.245.285-.318.815-.318,1.891,0,3.382.106,3.7.106.248,0,1.777-.106,2.95-.106C88.01,4.023,88.26,4.1,88.26,4.309ZM85.872,27.242a.9.9,0,0,0-.422-.8,1.717,1.717,0,0,0-.91-.186H82.914v3.739h.457V28.267h.836l1.07,1.725h.541l-1.124-1.725C85.355,28.25,85.872,27.979,85.872,27.242Zm-1.8.671h-.7V26.592H84.44c.459,0,.97.068.97.645C85.41,27.994,84.6,27.912,84.069,27.912Z"/>
    </symbol>

    <symbol id="svg-electronic-shipment" viewBox="0 0 35 35">
        <title>electronic shipment</title>
        <path d="M31.115,12.18a1.254,1.254,0,0,0-1.25-1.255H12.214a1.254,1.254,0,0,0-1.25,1.255v0h0V14H4.385a.5.5,0,1,0,0,1h6.579v2H6.074a.5.5,0,0,0,0,1h4.89v2h-3.2a.5.5,0,0,0,0,1h3.2v1.817a1.255,1.255,0,0,0,1.25,1.258H29.865a1.256,1.256,0,0,0,1.25-1.258V12.183h0Zm-18.9-.3H29.865a.3.3,0,0,1,.161.554L21.214,18.07a.328.328,0,0,1-.35,0l-8.812-5.636a.3.3,0,0,1-.138-.252A.3.3,0,0,1,12.214,11.881Zm17.95,10.937a.3.3,0,0,1-.3.3H12.214a.3.3,0,0,1-.3-.3V13.477l8.44,5.4a1.281,1.281,0,0,0,1.369,0l8.44-5.4Z"/>
    </symbol>

    <symbol id="svg-email" viewBox="0 0 35 35">
        <title>email</title>
        <path d="M27.575,12.18a1.254,1.254,0,0,0-1.25-1.255H8.674a1.254,1.254,0,0,0-1.25,1.255v0h0V22.817a1.255,1.255,0,0,0,1.25,1.258H26.325a1.256,1.256,0,0,0,1.25-1.258V12.183h0Zm-18.9-.3H26.325a.3.3,0,0,1,.161.554L17.675,18.07a.328.328,0,0,1-.35,0L8.513,12.434a.3.3,0,0,1-.138-.252A.3.3,0,0,1,8.674,11.881Zm17.95,10.937a.3.3,0,0,1-.3.3H8.674a.3.3,0,0,1-.3-.3V13.477l8.44,5.4a1.281,1.281,0,0,0,1.369,0l8.44-5.4Z"/>
    </symbol>

    <symbol id="svg-five-up" viewBox="0 0 35 35">
        <title>five up</title>
        <path d="M23.349,23.349h-3.38v-3.38h3.38Zm0-7.535h-3.38v3.38h3.38Zm-4.155-4.155h-3.38v3.38h3.38Zm4.155,12.465h-3.38V27.5h3.38Zm-4.155-8.31h-3.38v3.38h3.38Zm0-4.93H19.2V7.5H15.814v3.38h3.38Zm4.155.775h-3.38v3.38h3.38Zm4.155,0h-3.38v3.38H27.5Zm0,4.155h-3.38v3.38H27.5Zm0-8.31h-3.38v3.38H27.5Zm0,12.465h-3.38v3.38H27.5Zm-4.155-9.085h.011V7.5H19.969v3.38h3.38ZM27.5,24.124h-3.38V27.5H27.5Zm-16.62-8.31H7.5v3.38h3.38Zm4.155,8.31h-3.38V27.5h3.38ZM10.884,7.5H7.5v3.38h3.38Zm0,12.465H7.5v3.38h3.38Zm0-8.31H7.5v3.38h3.38Zm0,12.465H7.5V27.5h3.38ZM35,0V35H0V0ZM34,1H1V34H34ZM15.039,19.969h-3.38v3.38h3.38Zm0-9.085h0V7.5H11.659v3.38h3.38Zm4.155,13.24h-3.38V27.5h3.38Zm0-4.155h-3.38v3.38h3.38Zm-4.155-8.31h-3.38v3.38h3.38Zm0,4.155h-3.38v3.38h3.38Z"/>
    </symbol>

    <symbol id="svg-gas" viewBox="0 0 35 35">
        <title>gas</title>
        <path d="M22.5,15.344V10.01A1.5,1.5,0,0,0,21,8.51H13a1.5,1.5,0,0,0-1.5,1.5V21.434h11ZM15,16.969H13v-.5h2Zm3,0H16v-.5h2Zm3,0H19v-.5h2Zm0-2.042H13V10.26h8ZM9.917,25.521H24.083v.745H9.917ZM20.75,10.51h-7.5v4.167h7.5Zm-2.417,2.334H15.667v-.5h2.666ZM22.5,23.51h-11V21.934h11Zm-5-22.27A16.26,16.26,0,1,0,33.76,17.5,16.26,16.26,0,0,0,17.5,1.24Zm10.167,12.6h-.75v5.5a.917.917,0,0,1-1.834,0v-4a.421.421,0,0,0-.415-.415H23V24.01h-.007a1.964,1.964,0,0,1-.323,1.01h1.913v1.745H9.417V25.021H11.33a1.964,1.964,0,0,1-.323-1.01H11v-14a2,2,0,0,1,2-2h8a2,2,0,0,1,2,2v4.417h1.668a.916.916,0,0,1,.915.915v4A.411.411,0,0,0,26,19.76a.416.416,0,0,0,.417-.413v-5.5h-.75v-2l1-2.667h1Zm-1.75-1.955.923-2.462h.577v4.167h-1.5Z"/>
    </symbol>

    <symbol id="svg-heart" viewBox="0 0 35 35">
        <title>heart</title>
      <path d="M30.03,10.793a5.972,5.972,0,0,0-2.819-3.968,7.019,7.019,0,0,0-3.794-1.105,7.225,7.225,0,0,0-2.058.3A6.927,6.927,0,0,0,17.5,8.88a6.929,6.929,0,0,0-3.859-2.86,7.234,7.234,0,0,0-2.059-.3A7.017,7.017,0,0,0,7.788,6.824,5.972,5.972,0,0,0,4.97,10.793c-.424,2.192.359,4.892,2.15,7.406a66.915,66.915,0,0,0,7.292,8.163c.915.919,1.826,1.833,2.708,2.756a.527.527,0,0,0,.761,0c.882-.923,1.793-1.837,2.708-2.756A66.915,66.915,0,0,0,27.88,18.2C29.671,15.685,30.454,12.985,30.03,10.793Zm-2.965,6.827a66.1,66.1,0,0,1-7.186,8.037l-.068.068c-.763.766-1.548,1.556-2.312,2.346-.757-.785-1.538-1.569-2.3-2.331l-.083-.083a66.1,66.1,0,0,1-7.186-8.037C6.3,15.327,5.579,12.908,5.952,10.982A5.009,5.009,0,0,1,8.328,7.666a6.01,6.01,0,0,1,3.253-.947,6.234,6.234,0,0,1,1.775.259,5.935,5.935,0,0,1,3.3,2.445,1,1,0,0,0,1.678,0,5.933,5.933,0,0,1,3.3-2.445,6.224,6.224,0,0,1,1.773-.259,6.01,6.01,0,0,1,3.255.947,5.009,5.009,0,0,1,2.376,3.316C29.421,12.908,28.7,15.327,27.066,17.619Z"/>
    </symbol>

    <symbol id="svg-heart-full" viewBox="0 0 35 35">
        <title>heart full</title>
        <path fill="#d50642" d="M27.881,18.2a66.926,66.926,0,0,1-7.292,8.163c-.915.919-1.826,1.833-2.708,2.756a.527.527,0,0,1-.762,0c-.882-.923-1.793-1.837-2.708-2.756A66.926,66.926,0,0,1,7.119,18.2c-1.791-2.514-2.574-5.214-2.15-7.406A5.972,5.972,0,0,1,7.788,6.825a7.091,7.091,0,0,1,5.853-.8A6.928,6.928,0,0,1,17.5,8.88a6.928,6.928,0,0,1,3.859-2.86,7.092,7.092,0,0,1,5.853.8,5.972,5.972,0,0,1,2.819,3.968C30.454,12.985,29.671,15.685,27.881,18.2Z"/>
    </symbol>

    <symbol id="svg-lock" viewBox="0 0 35 35">
        <title>lock</title>
        <path d="M19.0376,19.33a1.5412,1.5412,0,0,1-.552,1.176v1.869a.2254.2254,0,0,1-.2249.225H16.7383a.2254.2254,0,0,1-.2249-.225V20.5057A1.5364,1.5364,0,1,1,19.0376,19.33Zm5.8486-4.9877V26.05a1.5016,1.5016,0,0,1-1.5,1.5H11.6138a1.5016,1.5016,0,0,1-1.5-1.5V14.3424a1.5016,1.5016,0,0,1,1.5-1.5H13.146V11.8041a4.354,4.354,0,1,1,8.708,0v1.0383h1.5322A1.5016,1.5016,0,0,1,24.8862,14.3424Zm-10.74-1.5h6.708V11.8041a3.354,3.354,0,1,0-6.708,0Zm9.74,1.5a.5007.5007,0,0,0-.5-.5H11.6138a.5007.5007,0,0,0-.5.5V26.05a.501.501,0,0,0,.5.5H23.3862a.501.501,0,0,0,.5-.5Z"/>
    </symbol>

    <symbol id="svg-locked" viewBox="0 0 35 35">
        <title>locked</title>
        <path d="M19.038,19.33a1.541,1.541,0,0,1-.552,1.176v1.869a.225.225,0,0,1-.225.225H16.738a.225.225,0,0,1-.225-.225V20.506a1.536,1.536,0,1,1,2.524-1.176Zm5.849-4.988V26.05a1.5,1.5,0,0,1-1.5,1.5H11.614a1.5,1.5,0,0,1-1.5-1.5V14.342a1.5,1.5,0,0,1,1.5-1.5h1.532V11.8a4.354,4.354,0,1,1,8.708,0v1.038h1.532A1.5,1.5,0,0,1,24.886,14.342Zm-10.74-1.5h6.708V11.8a3.354,3.354,0,1,0-6.708,0Zm9.74,1.5a.5.5,0,0,0-.5-.5H11.614a.5.5,0,0,0-.5.5V26.05a.5.5,0,0,0,.5.5H23.386a.5.5,0,0,0,.5-.5Z"/>
    </symbol>

    <symbol id="svg-lunchout" viewBox="0 0 35 35">
        <title>lunchout</title>
        <path d="M16.305,18.134l1.151,1.192-5.574,6.412a.822.822,0,0,1-.565.283.856.856,0,0,1-.6-.2.823.823,0,0,1-.08-1.165Zm8.168-9.048a.135.135,0,0,0-.1-.105.144.144,0,0,0-.15.047L18.04,16.139,19.5,17.648C24.765,13.458,24.738,10.271,24.473,9.086Zm-8.646,5.482.036-.136a1.184,1.184,0,0,0-.293-1.136l-.924-.957L12.46,14.452l.923.956a1.2,1.2,0,0,0,1.135.332l.139-.033,9.53,9.87a.817.817,0,1,0,1.176-1.135ZM33.76,17.5A16.26,16.26,0,1,1,17.5,1.24,16.26,16.26,0,0,1,33.76,17.5Zm-8.038,6.594-5.876-6.085c5.254-4.191,5.47-7.451,5.116-9.032A.645.645,0,0,0,23.844,8.7l-6.153,7.078-1.313-1.36a1.7,1.7,0,0,0-.447-1.47l-1.036-1.072h0l-3.1-3.213-.539.521,2.868,2.969-.644.622L10.609,9.8l-.539.521,2.867,2.97-.644.622L9.426,10.946l-.539.521,2.868,2.97,0,0,1.271,1.316a1.7,1.7,0,0,0,1.466.5l1.467,1.52-5.7,6.554a1.326,1.326,0,0,0,1,2.2l.1,0a1.32,1.32,0,0,0,.906-.454L17.8,19.687l6.023,6.237a1.317,1.317,0,1,0,1.895-1.83Z"/>
    </symbol>

    <symbol id="svg-menu" viewBox="0 0 35 35">
        <title>menu</title>
        <path d="M30,27.5H5a.5.5,0,0,1,0-1H30a.5.5,0,0,1,0,1ZM30,18H5a.5.5,0,0,1,0-1H30a.5.5,0,0,1,0,1Zm0-9.5H5a.5.5,0,0,1,0-1H30a.5.5,0,0,1,0,1Z"/>
    </symbol>

    <symbol id="svg-minus" viewBox="0 0 26 2">
        <title>minus</title>
        <path d="M12 0H0v2h26V0H14" fill-rule="evenodd"/>
    </symbol>

    <symbol id="svg-minus-rewards" viewBox="0 0 21 3">
        <title>minus rewards</title>
        <path d="M0 0h21v2.625H0z" fill="#FFF" fill-rule="evenodd"/>
    </symbol>

    <symbol id="svg-one-up" viewBox="0 0 35 35">
        <title>one up</title>
        <path d="M0,0V35H35V0ZM34,34H1V1H34Zm-6.492-6.492H7.492V7.492H27.508Z"/>
    </symbol>

    <symbol id="svg-order-history-box" viewBox="0 0 55 50">
        <title>order history box</title>
        <path d="M33.803 30.074l-5.156-6.04.214-.084 17.21-6.623c.17.016.33.043.487.08l4.982 5.807-17.733 6.86zm11.9 10.778l-17.71 6.816V26.195l4.797 5.62c.185.218.452.335.726.335.116 0 .232-.02.345-.064l11.848-4.58V40.85zM8.38 27.505l11.842 4.58c.112.045.23.065.344.065.274 0 .54-.117.726-.334l4.797-5.62v21.472L8.38 40.852V27.505zM7.7 17.207l17.51 6.74.225.086-5.155 6.04-17.732-6.86L7.7 17.208zm12.58-15.13l5.167 6.056-17.734 6.825-5.165-6.022 17.732-6.86zm13.523 0l17.732 6.86-5.165 6.02-17.735-6.824 5.168-6.056zm-23.71 14L27.04 9.553l16.95 6.523-16.95 6.522-16.945-6.522zm37.823 0l5.938-6.925c.2-.234.275-.55.2-.847-.075-.3-.29-.542-.58-.653L33.862.064c-.38-.146-.807-.037-1.07.27l-5.75 6.737-5.75-6.73c-.26-.308-.69-.417-1.07-.27L.61 7.65c-.288.11-.504.354-.58.653-.074.297 0 .613.2.847l5.94 6.924L.228 23c-.2.232-.275.548-.2.846.075.298.29.54.58.653l5.866 2.264V41.5c0 .39.242.744.61.885l19.613 7.55c.014.005.03.007.043.01.018.007.035.01.05.015.084.024.168.04.25.04.085 0 .17-.016.252-.04.016-.003.033-.007.05-.013.014-.004.028-.006.042-.012L47 42.385c.366-.14.608-.49.608-.882V26.768l5.867-2.27c.288-.11.504-.354.58-.652.074-.298 0-.614-.2-.847l-5.94-6.928z" fill="currentColor" fill-rule="evenodd"/>
    </symbol>

    <symbol id="svg-phone" viewBox="0 0 35 35">
        <title>phone</title>
        <path d="M13.191,24.836h8.82V10.165h-8.82Zm.1-14.572h8.621V24.736H13.291Zm7.577-3H14.335a1.986,1.986,0,0,0-1.984,1.984v1.217l0,0h-.058a.14.14,0,0,0-.139.141l0,.847a.14.14,0,0,0,.141.139h.056v.585l-.006,0h-.058a.14.14,0,0,0-.139.141l.008,1.523a.14.14,0,0,0,.141.139h.055v.27l0,0h-.061a.14.14,0,0,0-.139.141l.008,1.523a.14.14,0,0,0,.141.139h.055v9.7a1.986,1.986,0,0,0,1.984,1.984h6.532a1.986,1.986,0,0,0,1.984-1.984V9.248A1.986,1.986,0,0,0,20.868,7.264Zm1.484,18.487a1.484,1.484,0,0,1-1.484,1.484H14.335a1.484,1.484,0,0,1-1.484-1.484V9.248a1.484,1.484,0,0,1,1.484-1.484h6.532a1.484,1.484,0,0,1,1.484,1.484Zm-4.75-.631h0a.754.754,0,0,0,0,1.508h0a.754.754,0,0,0,0-1.508Zm0,1.408h0a.654.654,0,0,1,0-1.309h0a.654.654,0,0,1,0,1.309Z"/>
    </symbol>

    <symbol id="svg-phonebill" viewBox="0 0 35 35">
        <title>phone bill</title>
        <path d="M17.5,1.24A16.26,16.26,0,1,0,33.76,17.5,16.26,16.26,0,0,0,17.5,1.24Zm5.751,25.127A2.135,2.135,0,0,1,21.119,28.5H14.1a2.135,2.135,0,0,1-2.132-2.132V15.939h-.059a.151.151,0,0,1-.151-.15l-.008-1.637A.15.15,0,0,1,11.9,14h.065l0,0v-.29h-.059a.151.151,0,0,1-.151-.15l-.008-1.637a.15.15,0,0,1,.15-.151h.062l.006,0V11.15h-.06a.151.151,0,0,1-.152-.15l0-.91a.15.15,0,0,1,.15-.151h.063l0,0V8.632A2.135,2.135,0,0,1,14.1,6.5h7.02a2.135,2.135,0,0,1,2.132,2.132Zm-1.01-1.091H12.977V9.724h9.265ZM21.119,7.037H14.1A1.6,1.6,0,0,0,12.5,8.632V26.368A1.6,1.6,0,0,0,14.1,27.963h7.02a1.6,1.6,0,0,0,1.595-1.595V8.632A1.6,1.6,0,0,0,21.119,7.037ZM17.613,27.311h0a.81.81,0,0,1,0-1.62h0a.81.81,0,0,1,0,1.62Zm4.735-1.927H12.87V9.617h9.479ZM18.312,26.5a.7.7,0,0,1-.7.707h0A.7.7,0,0,1,17.6,25.8h0A.7.7,0,0,1,18.312,26.5Z"/>
    </symbol>

    <symbol id="svg-plus" viewBox="0 0 13 13">
        <title>plus</title>
        <path d="M7 0H6v6H0v1h6v6h1V7h6V6H7" fill-rule="evenodd"/>
    </symbol>

    <symbol id="svg-plus-rewards" viewBox="0 0 21 21">
        <title>plus rewards</title>
        <path d="M9.188 9.188H0v2.624h9.188V21h2.624v-9.188H21V9.188h-9.188V0H9.188v9.188z" fill="#FFF" fill-rule="evenodd"/>
    </symbol>

    <symbol id="svg-rewards-circle" viewBox="0 0 52 52">
        <title>rewards circle</title>
        <circle cx="299" cy="25" r="25" transform="translate(-363.000000, -264.000000) translate(90.000000, 237.000000) translate(0.000000, 28.000000)" stroke-width="2" stroke="currentColor" fill="none" fill-rule="evenodd"/>
    </symbol>

    <symbol id="svg-search" viewBox="0 0 35 35">
        <title>search</title>
        <path d="M29.625,28.915,24.1,23.388a10.874,10.874,0,1,0-.707.707l5.526,5.526a.5.5,0,1,0,.707-.707ZM9.115,23.052a9.857,9.857,0,1,1,13.94,0A9.789,9.789,0,0,1,9.115,23.052Z"/>
    </symbol>

    <symbol id="svg-shipping-truck" viewBox="0 0 35 35">
        <title>shipping truck</title>
        <path d="M31.613,17.057,26.4,10.663a2.358,2.358,0,0,0-1.834-.871H11.976a2.368,2.368,0,0,0-2.365,2.365V12.9H3.355a.5.5,0,0,0,0,1H9.611v2h-4.5a.5.5,0,0,0,0,1h4.5v2H6.733a.5.5,0,1,0,0,1H9.611v.746A2.365,2.365,0,0,0,11.9,23.009a2.739,2.739,0,0,0,5.369.007h5.563a2.738,2.738,0,0,0,5.37-.025,2.352,2.352,0,0,0,1.563-.8l1.8-2.1A2.361,2.361,0,0,0,31.613,17.057Zm-21-4.9a1.367,1.367,0,0,1,1.365-1.365h6.757V15.9H10.611Zm3.979,12.05a1.692,1.692,0,1,1,1.735-1.691A1.716,1.716,0,0,1,14.589,24.207Zm10.931,0a1.692,1.692,0,1,1,1.735-1.691A1.716,1.716,0,0,1,25.52,24.207Zm5.295-4.768-1.8,2.1A1.364,1.364,0,0,1,28.2,22a2.745,2.745,0,0,0-5.373.02H17.278a2.744,2.744,0,0,0-5.376,0,1.367,1.367,0,0,1-1.291-1.363V16.9h8.622a.5.5,0,0,0,.5-.5V10.793h4.836a1.361,1.361,0,0,1,1.059.5l5.21,6.394A1.362,1.362,0,0,1,30.815,19.44ZM27.165,16.4a.5.5,0,0,1-.5.5H21.921a.5.5,0,0,1-.5-.5V11.982a.5.5,0,0,1,1,0V15.9h4.244A.5.5,0,0,1,27.165,16.4Z"/>
    </symbol>

    <symbol id="svg-shoe" viewBox="0 0 50 50">
        <title>shoe</title>
        <g transform="translate(-161.000000, -1015.000000) translate(130.000000, 912.000000) translate(31.000000, 56.000000) translate(0.000000, 47.000000)" fill="none" fill-rule="evenodd"><circle fill="#000" cx="25" cy="25" r="25"/><path d="M16.464 13.036c.3-.106.627.03.763.317.42.885 1.347 2.752 2.194 3.885 2.31 3.085 5.62 6.608 8.15 8.56.86.663 2.16 1.262 3.27.913.93-.29 1.29-1.18 1.588-2.03.065-.18.26-.29.45-.24 1.865.486 4.034 1.5 5.497 2.67 1.23.984.016 3.894-.835 5.86-.38.88-1.248 1.448-2.208 1.447h-1.38s-5.016-.053-7.164 0c-.145.004-1.373-4.182-1.48-4.55-.532-1.82-1.672-3.444-2.887-4.93-.774-.95-4.374-3.89-5.726-2.673-.2.18-.31.444-.34.715-.427 3.6-.94 8.385-.583 12.03-.475.002 0-.01-.475-.006-.106-3.837-.796-8.79-1.247-12.604-.24-2.06-2.062-3.665-2.04-5.74.02-1.856 3.18-3.163 4.465-3.62z" stroke="#FFF"/></g>
    </symbol>

    <symbol id="svg-small-close" viewBox="0 0 35 35">
        <title>close</title>
        <path d="M23.157,22.45a.5.5,0,1,1-.707.707l-4.95-4.95-4.95,4.95a.5.5,0,1,1-.707-.707l4.95-4.95-4.95-4.95a.5.5,0,0,1,.707-.707l4.95,4.95,4.95-4.95a.5.5,0,0,1,.707.707l-4.95,4.95Z"/>
    </symbol>

    <symbol id="svg-store" viewBox="0 0 55 35">
        <title>store</title>
        <path d="M50.868,10.343a.5.5,0,0,0-.488-.391H42.345L28.2,4.352a2.53,2.53,0,0,0-1.9.011l-13.65,5.59H4.62a.5.5,0,0,0-.488.391l-1.12,5a.5.5,0,0,0,.488.609H5.125V30.327a.5.5,0,0,0,.5.5H49.312a.5.5,0,0,0,.5-.5V15.952H51.5a.5.5,0,0,0,.488-.609ZM5.109,14.952H4.124l.9-4h.089Zm39.24-4h1.731v4H44.35Zm-2.731,0H43.35v4H41.618ZM26.68,5.288a1.53,1.53,0,0,1,1.149-.007l11.8,4.671H15.29Zm13.938,5.664v4H38.887v-4Zm-5.463,0v4H33.424v-4Zm-2.731,0v4H30.692v-4Zm-2.731,0v4H27.961v-4Zm-2.731,0v4H25.229v-4Zm-2.731,0v4H22.5v-4Zm-2.731,0v4H19.767v-4Zm-7.194,0h1.731v4H14.3Zm-2.731,0H13.3v4H11.572Zm-2.731,0h1.731v4H8.841Zm-2.716,0H7.841v4H6.125ZM17.874,29.827H6.125V15.952H17.874Zm.893-14.875H17.035v-4h1.731Zm12.22,14.875H24.014V18.758h6.973Zm5.5,0h-4.5V18.258a.5.5,0,0,0-.5-.5H23.514a.5.5,0,0,0-.5.5V29.827h-4.14V15.952H36.487Zm-.332-14.875v-4h1.731v4H36.155ZM48.812,29.827H37.487V15.952H48.812Zm0-14.875H47.081v-4h1.731Zm1,0v-4h.167l.9,4ZM9.2,26.1H14.67a.5.5,0,0,0,.5-.5V19.015a.5.5,0,0,0-.5-.5H9.2a.5.5,0,0,0-.5.5V25.6A.5.5,0,0,0,9.2,26.1Zm.5-6.583H14.17V25.1H9.7ZM40.612,26.1h5.475a.5.5,0,0,0,.5-.5V19.015a.5.5,0,0,0-.5-.5H40.612a.5.5,0,0,0-.5.5V25.6A.5.5,0,0,0,40.612,26.1Zm.5-6.583h4.475V25.1H41.112Z"/>
    </symbol>

    <symbol id="svg-store-locator" viewBox="0 0 35 35">
        <title>store locator</title>
        <path d="M17.5,30.921a.5.5,0,0,1-.438-.26l-7-12.793a10.591,10.591,0,0,1-1.293-5.061,8.729,8.729,0,1,1,17.457,0,10.584,10.584,0,0,1-1.293,5.06l-7,12.794A.5.5,0,0,1,17.5,30.921Zm0-25.843a7.738,7.738,0,0,0-7.729,7.73,9.587,9.587,0,0,0,1.17,4.581L17.5,29.379l6.559-11.991a9.581,9.581,0,0,0,1.17-4.58A7.738,7.738,0,0,0,17.5,5.079Zm0,10.452a3.062,3.062,0,1,1,3.062-3.062A3.065,3.065,0,0,1,17.5,15.531Zm0-5.123a2.062,2.062,0,1,0,2.062,2.062A2.064,2.064,0,0,0,17.5,10.408Z"/>
    </symbol>

    <symbol id="svg-three-up" viewBox="0 0 35 35">
        <title>three up</title>
        <path d="M27.508,27.508H21.725V21.725h5.783Zm0-20.015H21.725v5.783h5.783Zm0,7.116H21.725v5.783h5.783Zm-7.116,0H14.608v5.783h5.783Zm0-7.116H14.608v5.783h5.783ZM35,0V35H0V0ZM34,1H1V34H34ZM13.275,21.725H7.492v5.783h5.783Zm7.116,0H14.608v5.783h5.783ZM13.275,7.492H7.492v5.783h5.783Zm0,7.116H7.492v5.783h5.783Z"/>
    </symbol>

    <symbol id="svg-two-up" viewBox="0 0 35 35">
        <title>two up</title>
        <path d="M27.508,16.842h-9.35V7.492h9.35ZM16.842,7.492H7.492v9.35h9.35ZM27.508,18.158h-9.35v9.35h9.35Zm-10.665,0H7.492v9.35h9.35ZM35,0V35H0V0ZM34,1H1V34H34Z"/>
    </symbol>

    <symbol id="svg-unlocked" viewBox="0 0 35 35">
        <title>unlocked</title>
        <path d="M19.037,19.33a1.541,1.541,0,0,1-.552,1.176v1.869a.225.225,0,0,1-.225.225H16.738a.225.225,0,0,1-.225-.225V20.506a1.536,1.536,0,1,1,2.524-1.176Zm5.849-4.988V26.05a1.5,1.5,0,0,1-1.5,1.5H11.614a1.5,1.5,0,0,1-1.5-1.5V14.342a1.5,1.5,0,0,1,1.5-1.5h1.521V11.8a3.354,3.354,0,1,0-6.708,0v1.038h-1V11.8a4.354,4.354,0,1,1,8.708,0v1.038h9.251A1.5,1.5,0,0,1,24.886,14.342Zm-1,0a.5.5,0,0,0-.5-.5H11.614a.5.5,0,0,0-.5.5V26.05a.5.5,0,0,0,.5.5H23.386a.5.5,0,0,0,.5-.5Z"/>
    </symbol>

    <symbol id="svg-back-arrow" viewBox="0 0 35 35">
      <title>back_arrow</title>
      <path d="M23.5,24.5l-12-7,12-7Z" style="fill-rule: evenodd"/>
    </symbol>

    <symbol id="svg-forward-arrow" viewBox="0 0 35 35">
      <title>forward_arrow</title>
      <path d="M11.5,10.5l12,7-12,7Z" style="fill-rule: evenodd"/>
    </symbol>

    <symbol id="svg-arrow-left-with-tail" viewBox="0 0 35 35">
      <defs>
        <clipPath id="clip-path">
          <polygon points="5.8 16.5 11.4 10.9 10 9.5 2 17.5 10 25.5 11.4 24.1 5.8 18.5 33 18.5 33 16.5 5.8 16.5" style="clip-rule: evenodd"/>
        </clipPath>
      </defs>
      <polygon points="5.8 16.5 11.4 10.9 10 9.5 2 17.5 10 25.5 11.4 24.1 5.8 18.5 33 18.5 33 16.5 5.8 16.5" style="fill-rule: evenodd"/>
    </symbol>

    <symbol id="svg-x" viewBox="0 0 31 31">
        <title>Close</title>
        <path d="M15.07 15.356L1.46 1.746l-.284-.285.568-.564.283.284 13.61 13.61L29.25 1.18l.282-.284.567.567-.286.285-13.61 13.61L30.097 29.25l.283.282-.566.567-.283-.286-13.89-13.892L1.746 29.816l-.284.283-.564-.57.284-.283 13.89-13.893z" stroke="#4A4A4A" fill="#4A4A4A" fill-rule="evenodd" stroke-linecap="square"/>
    </symbol>

    <symbol id="svg-x-small" viewBox="0 0 15 15">
        <title>Close</title>
        <path d="M4.496 6.093L0 1.597 1.597 0l4.496 4.496L10.588 0l1.597 1.597L7.69 6.093l4.495 4.495-1.597 1.597L6.093 7.69l-4.496 4.495L0 10.588l4.496-4.495z" fill="#000" fill-rule="evenodd"/>
        </symbol>

    <symbol id="svg-birthday-cake" viewBox="0 0 76 76">
        <title>birthday cake</title>
        <path d="M20.652 39.962v-5c1.001-.845 2.531-1.406 3.942-.844.587.236 1.11.64 1.666 1.07.548.424 1.113.863 1.8 1.185a5.7 5.7 0 0 0 4.167.218c.937-.323 1.7-.862 2.437-1.385.623-.44 1.211-.856 1.859-1.11 1.142-.448 2.52-.366 3.588.215.456.248.876.587 1.319.947.65.527 1.323 1.07 2.196 1.399a5.094 5.094 0 0 0 1.787.312c.7 0 1.428-.13 2.142-.39.845-.306 1.521-.792 2.175-1.26.701-.504 1.365-.981 2.15-1.147 1.165-.252 2.485.087 3.468.83v4.96H20.652zm34.696 10.984h-1.652c-.456 0-.826.354-.826.79 0 .435.37.789.826.789h1.652v2.107c0 .434-.372.79-.826.79H21.478c-.454 0-.826-.356-.826-.79v-2.107h1.654c.456 0 .826-.354.826-.79 0-.435-.37-.789-.826-.789h-1.654v-3.09h34.696v3.09zm-34.696-4.67h34.696v-4.735H20.652v4.736zm30.565-17.69c2.279 0 4.13 1.77 4.13 3.946v.603c-1.19-.571-2.55-.778-3.827-.505-1.132.243-1.971.846-2.783 1.427-.586.42-1.141.82-1.769 1.046-.953.348-1.951.376-2.738.084-.62-.232-1.16-.67-1.73-1.133-.482-.39-.98-.794-1.572-1.115-1.502-.817-3.434-.93-5.033-.304-.838.33-1.536.825-2.212 1.303-.673.474-1.305.924-2.014 1.167a3.927 3.927 0 0 1-2.882-.151c-.518-.242-.99-.608-1.49-.993-.62-.48-1.26-.978-2.067-1.298-1.589-.638-3.251-.327-4.578.384v-.515c0-2.177 1.852-3.946 4.13-3.946h26.435zm-12.804-1.58h12.804c3.19 0 5.783 2.48 5.783 5.526v22.1C57 55.938 55.888 57 54.522 57H21.478C20.112 57 19 55.938 19 54.632v-22.1c0-3.047 2.594-5.525 5.783-5.525H36.76v-5.525c0-.436.37-.79.826-.79.456 0 .826.354.826.79v5.525zM22.995 43.91c0 .436.37.79.826.79.456 0 .826-.354.826-.79 0-.436-.37-.79-.826-.79-.456 0-.826.354-.826.79zm7.089 0c0 .436.37.79.826.79.456 0 .826-.354.826-.79 0-.436-.37-.79-.826-.79-.456 0-.826.354-.826.79zm7.09 0c0 .436.37.79.826.79.456 0 .826-.354.826-.79 0-.436-.37-.79-.826-.79-.456 0-.826.354-.826.79zm7.089 0c0 .436.37.79.826.79.456 0 .826-.354.826-.79 0-.436-.37-.79-.826-.79-.456 0-.826.354-.826.79zm7.089 0c0 .436.37.79.826.79.456 0 .826-.354.826-.79 0-.436-.37-.79-.826-.79-.456 0-.826.354-.826.79zM35.163 23.537a.847.847 0 0 1-.475-.144c-.085-.056-2.057-1.414-2.057-3.897 0-2.333 3.664-5.653 4.4-6.294.032-.03.075-.043.112-.065.044-.028.086-.06.134-.079.052-.02.107-.028.165-.037.048-.008.094-.021.142-.021.054 0 .106.013.16.024.051.01.1.015.15.034.05.02.093.05.14.08.036.023.077.036.11.064.735.641 4.4 3.96 4.4 6.294 0 2.483-1.975 3.84-2.059 3.897a.85.85 0 0 1-.476.144.835.835 0 0 1-.676-.335.766.766 0 0 1 .197-1.097c.071-.05 1.361-.97 1.361-2.61 0-1.073-1.78-3.177-3.304-4.616-1.523 1.44-3.304 3.543-3.304 4.617 0 1.675 1.341 2.597 1.356 2.606a.769.769 0 0 1 .2 1.1.84.84 0 0 1-.676.335zM31.54 52.525c.456 0 .826-.354.826-.79 0-.435-.37-.789-.826-.789H26c-.456 0-.826.354-.826.79 0 .435.37.789.826.789h5.54zm9.232 0c.456 0 .826-.354.826-.79 0-.435-.37-.789-.826-.789h-5.54c-.456 0-.826.354-.826.79 0 .435.37.789.826.789h5.54zm9.232 0c.456 0 .826-.354.826-.79 0-.435-.37-.789-.826-.789h-5.54c-.456 0-.826.354-.826.79 0 .435.37.789.826.789h5.54z" fill-rule="evenodd"/>
    </symbol>

    <symbol id="svg-birthday-gift" viewBox="0 0 76 76">
        <title>birthday gift</title>
        <path d="M48.289 15H54v24H22V15h5.803c-.848-2.726-1.539-8.03 7.308-5.185 1.25.402 2.276 1.273 2.935 1.96.66-.687 1.685-1.558 2.935-1.96C49.828 6.97 49.137 12.274 48.29 15zM24 17v9h13v-9H24zm15 0v9h13v-9H39zM24 28v9h13v-9H24zm15 0v9h13v-9H39zm7.703-13.046c.033-.093.065-.188.096-.285.23-.715.385-1.414.428-2.037.153-2.231-.973-2.916-5.78-1.37-.593.19-1.192.557-1.766 1.053a8.193 8.193 0 0 0-.923.94v1.7h7.945zm-17.315 0h7.946v-1.698a8.193 8.193 0 0 0-.923-.941c-.574-.496-1.173-.863-1.766-1.053-4.807-1.546-5.934-.861-5.78 1.37.043.623.197 1.322.428 2.037.031.097.063.192.095.285zm17.2 33.22c4.082-3.034 5.926-3.934 8.288-3.934 2.508 0 3.696.684 3.872 2.447.07.69-.16 1.291-.645 1.881-.363.442-2.16 2.015-2.462 2.313l-.767.768c-.403.403-.78.774-1.178 1.158a69.78 69.78 0 0 1-3.252 2.963c-1.344 1.144-2.64 2.14-3.874 2.952-2.171 1.431-4.077 2.256-5.694 2.336-1.83.091-3.41-.026-5.56-.348l-.76-.117-.762-.121c-2.71-.43-4.28-.596-6.409-.596-3.65 0-7.016.61-10.106 1.83a.76.76 0 1 1-.558-1.413c3.271-1.292 6.828-1.937 10.664-1.937 2.225 0 3.864.174 6.647.615l.76.12c.286.045.522.082.748.116 2.06.308 3.547.418 5.26.333 1.286-.064 2.97-.792 4.933-2.087 1.177-.775 2.425-1.734 3.726-2.84a68.292 68.292 0 0 0 3.181-2.9c.392-.377.762-.742 1.16-1.14.15-.148.672-.673.77-.77.38-.377 2.09-1.873 2.358-2.2.248-.301.332-.521.308-.765-.082-.815-.538-1.078-2.36-1.078-1.942 0-3.543.782-7.381 3.635C44.74 51.44 40.9 52.247 36 51.846c-.895-.073-.946-1.365-.06-1.508 5.434-.875 8.228-2.007 8.3-2.929.099-1.284-.147-1.649-1.488-1.649l-11.667-.001c-2.454.152-4.26.696-5.427 1.603C23.52 49.024 20.943 49.73 17 49.73a.76.76 0 0 1 0-1.52c3.631 0 5.885-.616 7.725-2.046 1.442-1.122 3.533-1.752 6.313-1.923h11.714c2.35 0 3.164 1.208 3.003 3.287-.052.67-.433 1.257-1.146 1.781a9.848 9.848 0 0 0 1.979-1.133z" fill-rule="evenodd"/>
    </symbol>

    <symbol id="svg-donate-rewards" viewBox="0 0 76 76">
        <title>donate rewards</title>
        <path d="M46.588 48.175c4.082-3.035 5.926-3.935 8.288-3.935 2.508 0 3.696.684 3.872 2.447.07.69-.16 1.291-.645 1.881-.363.442-2.16 2.015-2.462 2.313l-.767.768c-.403.403-.78.774-1.178 1.158a69.78 69.78 0 0 1-3.252 2.963c-1.344 1.144-2.64 2.14-3.874 2.952-2.171 1.431-4.077 2.256-5.694 2.336-1.83.091-3.41-.026-5.56-.348l-.76-.117-.762-.121c-2.71-.43-4.28-.596-6.409-.596-3.65 0-7.016.61-10.106 1.83a.76.76 0 1 1-.558-1.413c3.271-1.292 6.828-1.937 10.664-1.937 2.225 0 3.864.174 6.647.615l.76.12c.286.045.522.082.748.116 2.06.308 3.547.418 5.26.333 1.286-.064 2.97-.792 4.933-2.087 1.177-.775 2.425-1.734 3.726-2.84a68.292 68.292 0 0 0 3.181-2.9c.392-.377.762-.742 1.16-1.14.15-.148.672-.673.77-.77.38-.377 2.09-1.873 2.358-2.2.248-.301.332-.521.308-.765-.082-.815-.538-1.078-2.36-1.078-1.942 0-3.543.782-7.381 3.635C44.74 51.44 40.9 52.247 36 51.846c-.895-.073-.946-1.365-.06-1.508 5.434-.875 8.228-2.007 8.3-2.929.099-1.284-.147-1.649-1.488-1.649l-11.667-.001c-2.454.152-4.26.696-5.427 1.603C23.52 49.024 20.943 49.73 17 49.73a.76.76 0 0 1 0-1.52c3.631 0 5.885-.616 7.725-2.046 1.442-1.122 3.533-1.752 6.313-1.923h11.714c2.35 0 3.164 1.208 3.003 3.287-.052.67-.433 1.257-1.146 1.781a9.848 9.848 0 0 0 1.979-1.133zm-5.072-19.886c-.6-.552-1.613-1.052-3.037-1.5-1.983-.57-3.428-1.313-4.336-2.23-.907-.916-1.361-2.08-1.361-3.493 0-1.439.444-2.619 1.333-3.54.89-.92 2.111-1.469 3.666-1.644V13h2.08v2.895c1.564.201 2.781.82 3.652 1.855.87 1.035 1.305 2.452 1.305 4.25H42.25c0-1.237-.312-2.22-.935-2.947-.624-.728-1.467-1.092-2.528-1.092-1.108 0-1.955.27-2.541.809-.587.54-.88 1.291-.88 2.256 0 .895.31 1.608.929 2.138.619.531 1.638 1.014 3.058 1.448 1.42.434 2.527.912 3.323 1.434.796.522 1.382 1.13 1.76 1.822.376.693.565 1.505.565 2.435 0 1.482-.472 2.675-1.417 3.579-.945.903-2.27 1.438-3.973 1.605V38h-2.066v-2.513c-1.732-.15-3.089-.73-4.07-1.744C32.49 32.73 32 31.355 32 29.618h2.583c0 1.22.34 2.158 1.02 2.816.68.658 1.643.987 2.89.987 1.22 0 2.178-.276 2.876-.829.699-.553 1.048-1.307 1.048-2.263 0-.807-.3-1.487-.9-2.04z"/>
    </symbol>

    <symbol id="svg-exclusive-access" viewBox="0 0 76 76">
        <title>exclusive access</title>
        <path d="M54.632 45.89l-.964-3.598 1.476-.395.964 3.598 11.122-2.98-1.367-5.103c-2.594.32-5.088-1.28-5.775-3.843l.734-.197-.734.197c-.686-2.563.673-5.195 3.08-6.216L61.8 22.25l-11.122 2.98.972 3.627-1.476.395-.972-3.626L19 33.718l1.367 5.103c2.594-.319 5.088 1.28 5.775 3.844.687 2.562-.673 5.195-3.08 6.216l1.368 5.102 30.202-8.092zM52.09 21.316l-.286-1.065L9 31.72l1.367 5.102c2.595-.32 5.088 1.28 5.775 3.843.687 2.563-.673 5.196-3.08 6.216l1.368 5.103 5.715-1.531.402 1.5-7.261 1.946-2.14-7.988.734-.197c2.042-.547 3.258-2.61 2.725-4.602-.534-1.991-2.62-3.17-4.661-2.623l-.734.197-2.14-7.988 45.739-12.256.67 2.5-1.39.373zM60.775 33.4l.734-.197c.534 1.991 2.62 3.17 4.661 2.623l.734-.197 2.14 7.988-45.739 12.256-2.14-7.988.734-.197c2.042-.547 3.258-2.61 2.725-4.602-.534-1.991-2.62-3.17-4.661-2.623l-.734.197-2.14-7.988 45.739-12.256 2.14 7.988-.734.197c-2.042.547-3.258 2.61-2.725 4.602l-.734.197zm-10.213-2.7l1.476-.395 1.164 4.346-1.475.396-1.165-4.347zm1.553 5.796l1.476-.396 1.164 4.347-1.475.395-1.165-4.346zm-15.867-5.29l3.887 4.365 5.921-.715-3.069 5.058 2.461 5.298-5.785-1.261-4.38 3.985-.518-5.82-5.187-2.844 5.486-2.342 1.184-5.723zm.062 6.685l-3.341 1.426 3.157 1.731.318 3.576 2.695-2.451 3.559.776-1.513-3.256 1.869-3.078-3.607.435-2.405-2.7-.732 3.54z"/>
    </symbol>

    <symbol id="svg-free-stuff" viewBox="0 0 76 76">
        <title>free stuff</title>
        <path d="M52.045 27.048H58V56H18V27.048h5.955c-1.188-3.84-2.535-12.116 9.83-7.864 1.85.636 3.338 2.08 4.215 3.107.877-1.027 2.365-2.47 4.216-3.107 12.364-4.252 11.017 4.024 9.829 7.864zM20 29v11h17V29H20zm19 0v11h17V29H39zM20 42v12h17V42H20zm19 0v12h17V42H39zm-1.94-17.994l-.132-.17c-.367-.465-.79-.932-1.255-1.362-.804-.743-1.645-1.293-2.477-1.579-3.762-1.294-6.103-1.355-7.211-.634-.715.465-1.042 1.476-.94 3.051.06.951.277 2.005.601 3.078.069.227.14.447.212.658H37.06v-3.042zm1.88 1.22v1.821h11.202c.072-.21.143-.43.212-.657.324-1.073.54-2.127.602-3.078.101-1.575-.226-2.586-.941-3.051-1.108-.721-3.449-.66-7.21.634-.833.286-1.674.836-2.478 1.579a11.902 11.902 0 0 0-1.387 1.532v1.22z"/>
    </symbol>

    <symbol id="svg-shoe-forward" viewBox="0 0 76 76">
        <title>shoe forward</title>
        <path d="M17.374 32.572c2.759-.268 5.324-1.273 7.869-3.166 2.316-1.723 4.881-5.844 5.545-8.068a31.53 31.53 0 0 1-3.004-.672c-1.209 4.044-3.392 7.73-6.747 9.136-3.3 1.382-5.786 1.784-8.848 1.796-.19.17-.439.826-.522 1.382.961-.214 2.146-.294 4.474-.338.16-.003.318-.008.476-.016a.672.672 0 0 1 .338-1.259c.376 0 .681.302.681.674a.67.67 0 0 1-.262.53zm-5.464-2.494h.001c3.007.011 5.353-.344 8.539-1.678 2.928-1.227 4.962-4.842 6.021-8.668.28-1.987.901-3.132 2.312-3.158 1.396-.027 3.283 1.755 3.625 3.464 1.931.231 3.788.24 5.684.082l.846-.07-.024.849c-.06 2.158.114 3.57.608 5.825l.142.646c.57 2.586.794 4.222.796 6.802.248.948.266 2.962-.088 3.8l-.082.194-.171.125c-.863.627-10.594 1.293-15.646 1.204-11.509-.203-16.103-.701-18.44-2.651-1.348-1.125-1.612-2.725-1.112-4.345.17-.553.427-1.072.68-1.406.178-.236.323-.387.54-.445.604-.543 1.738-.664 3.52-.632.284.005.545.013.983.029a35.86 35.86 0 0 0 1.266.033zM28.115 19.18c.9.248 1.77.448 2.62.604a3.553 3.553 0 0 0-.6-.83c-.494-.52-1.088-.866-1.323-.862-.28.006-.518.33-.697 1.088zm-10.58 14.902c2.684.186 5.724.295 8.22.26 6.529-.089 11.348-.312 13.18-.712-.03-2.15-.249-3.635-.755-5.934l-.143-.647c-.453-2.067-.654-3.495-.654-5.356a28.914 28.914 0 0 1-5.082-.138c-.702 2.582-3.508 7.104-6.151 9.07-2.764 2.055-5.587 3.161-8.615 3.457zm-7.403-1.044a4.62 4.62 0 0 1 .363-1.479 55.15 55.15 0 0 0-.86-.025c-1.138-.02-1.925.068-2.273.163.423.476 1.394.945 2.77 1.34zm36.456 15.136c4.082-3.035 5.926-3.935 8.288-3.935 2.508 0 3.696.684 3.872 2.447.07.69-.16 1.291-.645 1.881-.363.442-2.16 2.015-2.462 2.313l-.767.768c-.403.403-.78.774-1.178 1.158a69.78 69.78 0 0 1-3.252 2.963c-1.344 1.144-2.64 2.14-3.874 2.952-2.171 1.431-4.077 2.256-5.694 2.336-1.83.091-3.41-.026-5.56-.348l-.76-.117-.762-.121c-2.71-.43-4.28-.596-6.409-.596-3.65 0-7.016.61-10.106 1.83a.76.76 0 1 1-.558-1.413c3.271-1.292 6.828-1.937 10.664-1.937 2.225 0 3.864.174 6.647.615l.76.12c.286.045.522.082.748.116 2.06.308 3.547.418 5.26.333 1.286-.064 2.97-.792 4.933-2.087 1.177-.775 2.425-1.734 3.726-2.84a68.292 68.292 0 0 0 3.181-2.9c.392-.377.762-.742 1.16-1.14.15-.148.672-.673.77-.77.38-.377 2.09-1.873 2.358-2.2.248-.301.332-.521.308-.765-.082-.815-.538-1.078-2.36-1.078-1.942 0-3.543.782-7.381 3.635C44.74 51.44 40.9 52.247 36 51.846c-.895-.073-.946-1.365-.06-1.508 5.434-.875 8.228-2.007 8.3-2.929.099-1.284-.147-1.649-1.488-1.649l-11.667-.001c-2.454.152-4.26.696-5.427 1.603C23.52 49.024 20.943 49.73 17 49.73a.76.76 0 0 1 0-1.52c3.631 0 5.885-.616 7.725-2.046 1.442-1.122 3.533-1.752 6.313-1.923h11.714c2.35 0 3.164 1.208 3.003 3.287-.052.67-.433 1.257-1.146 1.781a9.848 9.848 0 0 0 1.979-1.133zm1.64-23.61a1.517 1.517 0 0 0-.233.09c-.896.427-1.041 2.542-.745 9.088.063 1.382.097 2.227.122 3.14l.022.782h-3.478v-.76c0-6.985-.499-12.895-1.167-15.646l-.136-.558a14.96 14.96 0 0 1-.277-1.39l-.006-.004-.037-.335c-.33-2.983.844-5.728 4.303-8.56l.52-.426.487.465c2.76 2.64 4.125 4.848 6.826 10.57a76.5 76.5 0 0 1 1.213 2.73c.42.979.576 1.338.79 1.808 1.786 3.933 3.179 4.998 6.351 4.123l.234-.064.227.082c.383.139.834.288 1.442.48.285.09 1.407.438 1.666.52 3.902 1.228 5.286 1.868 5.257 3.199-.056 2.48-5.262 3.766-11.734 3.766-5.735 0-6.921-1.131-8.97-7.645-.725-2.303-1.53-3.96-2.677-5.454zM44.226 20.9c.677 2.786 1.173 8.481 1.208 15.245h.394c-.022-.65-.052-1.357-.096-2.333-.343-7.57-.23-9.548 1.463-10.455-.8-.848-1.776-1.712-3.024-2.68l.055.223zm10.02 3.45a75.246 75.246 0 0 0-1.191-2.68c-2.458-5.205-3.739-7.358-6.015-9.643-2.531 2.226-3.409 4.26-3.265 6.45 2.484 1.815 4.12 3.264 5.366 4.793 1.421 1.744 2.38 3.644 3.214 6.294 1.868 5.94 2.54 6.58 7.52 6.58 5.476 0 10.189-1.163 10.214-2.28.004-.166-1.53-.876-4.193-1.714l-1.668-.52a43.637 43.637 0 0 1-1.275-.42c-3.902.995-5.888-.579-7.906-5.023a84.34 84.34 0 0 1-.802-1.836l.699-.3-.699.3zm-15.2 12.76c.092-.501.095-1.36.04-1.968-2.156.428-6.8.632-13.338.722-4.794.065-11.513-.384-14.19-.915-2.417-.48-4.205-1.122-5.172-2.044a3.933 3.933 0 0 0-.013.041c-.336 1.09-.177 2.054.633 2.73 1.924 1.606 6.537 2.106 17.494 2.3 2.2.038 5.734-.09 9.029-.315 2.617-.18 4.872-.428 5.517-.552zm-5.41-6.33c-1.924 0-3.487-1.544-3.487-3.453 0-1.91 1.563-3.454 3.487-3.454 1.924 0 3.488 1.544 3.488 3.454 0 1.91-1.564 3.453-3.488 3.453zm0-1.52c1.089 0 1.968-.868 1.968-1.933 0-1.066-.88-1.934-1.968-1.934s-1.967.868-1.967 1.934c0 1.065.879 1.933 1.967 1.933zm-4.863-6.423a.678.678 0 0 1-.682-.674c0-.372.305-.673.682-.673.376 0 .682.301.682.673a.678.678 0 0 1-.682.674zm-.91 2.245a.678.678 0 0 1-.681-.674c0-.372.305-.673.682-.673.376 0 .681.301.681.673a.678.678 0 0 1-.681.674zM26.5 27.327a.678.678 0 0 1-.682-.674c0-.372.305-.673.682-.673.377 0 .682.301.682.673a.678.678 0 0 1-.682.674zm-1.818 2.244a.678.678 0 0 1-.682-.673c0-.372.305-.674.682-.674.376 0 .682.302.682.674a.678.678 0 0 1-.682.673zm-2.273 1.347a.678.678 0 0 1-.682-.673c0-.372.306-.674.682-.674.377 0 .682.302.682.674a.678.678 0 0 1-.682.673zm-2.727.898a.678.678 0 0 1-.682-.673c0-.372.305-.674.682-.674.376 0 .682.302.682.674a.678.678 0 0 1-.682.673z"/>
    </symbol>

    <symbol id="svg-shop-for-squad" viewBox="0 0 76 76">
        <title>shop for squad</title>
        <path d="M38.513 36.727c-6.073 0-11.013-4.873-11.013-10.863C27.5 19.874 32.44 15 38.513 15c6.073 0 11.014 4.873 11.014 10.864 0 5.99-4.94 10.863-11.014 10.863zm0-20.175c-5.205 0-9.44 4.177-9.44 9.312 0 5.134 4.235 9.311 9.44 9.311 5.206 0 9.44-4.177 9.44-9.311 0-5.135-4.234-9.312-9.44-9.312zM38.12 59.68c4.34 0 8.552-.922 12.402-2.663.217.46.461.907.746 1.326a31.599 31.599 0 0 1-13.148 2.846c-8.133 0-15.845-3.065-21.717-8.632L16 52.175l.245-.494c5.676-11.412 11.651-12.367 17.286-12.367h9.176c4.001 0 8.176.487 12.293 4.856a9.856 9.856 0 0 0-1.321.808c-3.638-3.732-7.279-4.155-10.972-4.155H33.53c-5.28 0-10.454.854-15.661 11.025 5.531 5.055 12.7 7.832 20.249 7.832zM59 60.683a7.683 7.683 0 1 1 0-15.366 7.683 7.683 0 0 1 0 15.366zm0-1.52a6.163 6.163 0 1 0 0-12.326 6.163 6.163 0 0 0 0 12.326zm.77-6.932h3.076v1.538H59.77v3.077h-1.538V53.77h-3.077v-1.538h3.077v-3.077h1.538v3.077z"/>
    </symbol>

    <symbol id="svg-ribbon-profile-club" viewBox="0 0 22 21">
        <title>ribbon profile club</title>
        <path d="M10 15h2a6.003 6.003 0 0 1 5.742 4.255C19.786 17.297 21 14.51 21 11.5 21 5.691 16.513 1 11 1S1 5.691 1 11.5c0 3.01 1.214 5.797 3.258 7.755A6.003 6.003 0 0 1 10 15zM0 11.5C0 5.149 4.925 0 11 0s11 5.149 11 11.5c0 4.038-1.99 7.448-5.002 9.5A4.997 4.997 0 0 0 12 16h-2a5 5 0 0 0-5 5c-3.01-2.052-5-5.462-5-9.5zM11 13a3 3 0 1 0 0-6 3 3 0 0 0 0 6zm0 1a4 4 0 1 1 0-8 4 4 0 0 1 0 8z" fill="#7F7F7F"/>
    </symbol>

    <symbol id="svg-ribbon-profile-gold" viewBox="0 0 22 21">
        <title>ribbon profile gold</title>
        <path d="M10 15h2a6.003 6.003 0 0 1 5.742 4.255C19.786 17.297 21 14.51 21 11.5 21 5.691 16.513 1 11 1S1 5.691 1 11.5c0 3.01 1.214 5.797 3.258 7.755A6.003 6.003 0 0 1 10 15zM0 11.5C0 5.149 4.925 0 11 0s11 5.149 11 11.5c0 4.038-1.99 7.448-5.002 9.5A4.997 4.997 0 0 0 12 16h-2a5 5 0 0 0-5 5c-3.01-2.052-5-5.462-5-9.5zM11 13a3 3 0 1 0 0-6 3 3 0 0 0 0 6zm0 1a4 4 0 1 1 0-8 4 4 0 0 1 0 8z" fill="#333"/>
    </symbol>

    <symbol id="svg-ribbon-profile-elite" viewBox="0 0 22 21">
        <title>ribbon profile elite</title>
        <path d="M10 15h2a6.003 6.003 0 0 1 5.742 4.255C19.786 17.297 21 14.51 21 11.5 21 5.691 16.513 1 11 1S1 5.691 1 11.5c0 3.01 1.214 5.797 3.258 7.755A6.003 6.003 0 0 1 10 15zM0 11.5C0 5.149 4.925 0 11 0s11 5.149 11 11.5c0 4.038-1.99 7.448-5.002 9.5A4.997 4.997 0 0 0 12 16h-2a5 5 0 0 0-5 5c-3.01-2.052-5-5.462-5-9.5zM11 13a3 3 0 1 0 0-6 3 3 0 0 0 0 6zm0 1a4 4 0 1 1 0-8 4 4 0 0 1 0 8z" fill="#CCC"/>
    </symbol>

    <symbol id="svg-paperless" viewBox="0 0 30 30">
        <title>paperless</title>
        <path d="M15 29c7.732 0 14-6.268 14-14S22.732 1 15 1 1 7.268 1 15s6.268 14 14 14zm0 1C6.716 30 0 23.284 0 15 0 6.716 6.716 0 15 0c8.284 0 15 6.716 15 15 0 8.284-6.716 15-15 15zm.371-20.493c-2.039.444-3.654 1.168-4.69 2.202-2.214 2.215-2.108 5.67 0 7.778 2.076 2.076 5.622 2.158 7.779 0 1.02-1.02 1.74-2.657 2.184-4.741.417-1.959.547-4.01.513-5.737-1.761-.051-3.824.071-5.786.498zM9.975 20.194c-2.49-2.49-2.616-6.576 0-9.192 1.194-1.193 2.974-1.991 5.184-2.472 2.117-.46 4.323-.581 6.195-.516.153.006.261.011.32.015l.444.028.024.445c.002.046.006.132.009.253.052 1.846-.074 4.063-.53 6.2-.48 2.255-1.272 4.058-2.454 5.24-2.555 2.555-6.734 2.459-9.192 0zm2.975-3.682l1.828-1.828v-2.621a.5.5 0 1 1 1 0v1.621l1.975-1.974a.5.5 0 0 1 .707.707l-1.975 1.975h1.621a.5.5 0 1 1 0 1h-2.621l-1.828 1.828h3.035a.5.5 0 1 1 0 1h-4.035l-4.803 4.804a.5.5 0 1 1-.707-.707l4.803-4.804v-4.035a.5.5 0 1 1 1 0v3.034z" fill="#090"/>
    </symbol>

    <symbol id="svg-gwp" viewBox="0 0 76 76">
        <title>gift with purchase</title>
        <path d="M52.045 27.048H58V56H18V27.048h5.955c-1.188-3.84-2.535-12.116 9.83-7.864 1.85.636 3.338 2.08 4.215 3.107.877-1.027 2.365-2.47 4.216-3.107 12.364-4.252 11.017 4.024 9.829 7.864zM20 29v11h17V29H20zm19 0v11h17V29H39zM20 42v12h17V42H20zm19 0v12h17V42H39zm-1.94-17.994l-.132-.17c-.367-.465-.79-.932-1.255-1.362-.804-.743-1.645-1.293-2.477-1.579-3.762-1.294-6.103-1.355-7.211-.634-.715.465-1.042 1.476-.94 3.051.06.951.277 2.005.601 3.078.069.227.14.447.212.658H37.06v-3.042zm1.88 1.22v1.821h11.202c.072-.21.143-.43.212-.657.324-1.073.54-2.127.602-3.078.101-1.575-.226-2.586-.941-3.051-1.108-.721-3.449-.66-7.21.634-.833.286-1.674.836-2.478 1.579a11.902 11.902 0 0 0-1.387 1.532v1.22z"/>
    </symbol>

    <symbol id="svg-afterpay-logo" viewBox="0 0 140 29">
        <title>afterpay logo</title>
        <path d="M68.615 14.612c0-1.918-1.57-3.517-3.43-3.517s-3.43 1.599-3.43 3.517c0 1.89 1.57 3.517 3.43 3.517s3.43-1.628 3.43-3.517zM70.098 9.7c1.308 1.337 2.034 3.08 2.034 4.912 0 1.831-.726 3.575-2.034 4.912-1.308 1.308-3.052 2.006-4.912 2.006-1.221 0-2.326-.436-3.285-1.308l-.146-.116v7.784L58.24 29V7.955h3.517v1.047l.145-.146c1.047-1.017 2.238-1.162 3.285-1.162 1.83 0 3.575.698 4.912 2.006zM76.9 14.612c0 1.918 1.57 3.517 3.43 3.517s3.43-1.599 3.43-3.517c0-1.89-1.57-3.517-3.43-3.517s-3.43 1.628-3.43 3.517zm-1.483 4.912c-1.308-1.337-2.034-3.08-2.034-4.912 0-1.831.726-3.575 2.034-4.912 1.308-1.308 3.052-2.006 4.913-2.006 1.22 0 2.325.436 3.284 1.308l.146.116V7.955h3.517v13.313H83.76v-1.046l-.146.145c-1.046 1.017-2.238 1.163-3.284 1.163a6.979 6.979 0 0 1-4.913-2.006zM90.794 29l3.169-7.703-5.32-13.342h3.895l3.314 8.285 3.372-8.285h3.866L94.602 29h-3.808M6.804 9.935c-2.562 0-4.647 2.098-4.647 4.677 0 2.578 2.085 4.676 4.647 4.676 2.563 0 4.648-2.098 4.648-4.676 0-2.579-2.085-4.677-4.648-4.677zm0 11.452a6.852 6.852 0 0 1-4.821-1.956A6.866 6.866 0 0 1 0 14.61c0-1.8.705-3.512 1.986-4.82a6.85 6.85 0 0 1 4.818-1.955c1.841 0 3.391.974 4.367 1.791l.281.236V8.127h2.157v12.97h-2.157v-1.736l-.281.235c-.976.817-2.526 1.791-4.367 1.791zM17.514 21.097v-10.93h-1.976v-2.04h1.976V4.293c0-2.349 1.866-4.189 4.247-4.189h2.713l-.548 2.041H21.82c-1.144 0-2.148 1.031-2.148 2.207v3.775h4.099v2.04H19.67v10.93h-2.157M31.905 21.097a4.252 4.252 0 0 1-4.247-4.247v-6.682h-1.977V8.127h1.977V.104h2.157v8.023h4.098v2.04h-4.098v6.625c0 1.185 1.024 2.264 2.148 2.264h2.107l.547 2.041h-2.712M41.194 10.022c-1.668 0-3.216 1.203-3.853 2.992l-.021.039-.124.248h7.997l-.155-.307c-.598-1.768-2.146-2.972-3.844-2.972zM41.19 21.33a5.79 5.79 0 0 1-4.374-1.977 6.668 6.668 0 0 1-1.76-4.084c-.028-.203-.028-.395-.028-.598 0-.508.058-1.024.17-1.532a6.843 6.843 0 0 1 1.617-3.149 5.935 5.935 0 0 1 4.379-1.95c1.67 0 3.236.694 4.409 1.952.841.931 1.4 2.018 1.614 3.141.169.993.173 1.61.155 1.919H37.098v.23c.301 2.297 2.035 4.035 4.035 4.066 1.23-.06 2.442-.563 3.283-1.353l1.8 1.075a7.617 7.617 0 0 1-1.594 1.297c-.95.57-2.136.903-3.432.963zM49.49 21.097V8.127h2.158v1.64l.298-.33c.765-.844 3.013-1.532 4.508-1.596l-.526 2.154c-2.373.068-4.28 1.918-4.28 4.18v6.922H49.49" fill="#31322F"/><path d="M121.714 11.632l3.777-2.186c-.417-.733-.315-.557-.696-1.248-.403-.732-.25-1.02.582-1.026 2.423-.017 4.847-.019 7.27-.006.72.004.894.312.533.947a632.803 632.803 0 0 1-3.634 6.302c-.39.669-.732.667-1.14.013-.42-.672-.308-.506-.756-1.268l-3.765 2.187c.074.194.169.318.246.453.933 1.623 1.35 2.398 2.313 4.003 1.142 1.902 3.536 2.016 4.895.259.151-.196.29-.403.413-.617 2.287-3.962 4.575-7.922 6.849-11.892.23-.401.438-.84.538-1.289a2.85 2.85 0 0 0-2.79-3.486c-4.9-.026-9.803-.03-14.704.014-2.232.02-3.574 2.254-2.593 4.219.32.64.703 1.247 1.062 1.867.676 1.166.854 1.473 1.6 2.754" fill="#306E9A"/><path d="M110.817 23.871l.006-4.348s-.603-.006-1.417-.006c-.83 0-1-.293-.591-1.01a585.204 585.204 0 0 1 3.617-6.241c.362-.616.682-.67 1.078.015 1.203 2.083 2.41 4.164 3.597 6.257.379.668.207.96-.558.985l-1.464-.001v4.361h5.099c2.2-.032 3.49-2.028 2.66-4.07a5.465 5.465 0 0 0-.323-.662c-2.26-3.936-4.518-7.872-6.79-11.8-.23-.398-.503-.795-.838-1.104a2.827 2.827 0 0 0-4.38.657c-2.465 4.192-4.91 8.395-7.315 12.621-1.096 1.926.153 4.19 2.328 4.328.707.044 3.73.018 5.29.018" fill="#1F4066"/>
    </symbol>

    <symbol id="svg-afterpay-installments" viewBox="0 0 60 60">
        <title>afterpay installments</title>
        <g fill="none" fill-rule="evenodd"><path d="M7.609 13.083A28.124 28.124 0 0 0 1.935 30 28.122 28.122 0 0 0 7.61 46.917L24.526 30 7.609 13.083zM7.523 49.34l-.048-.001a.966.966 0 0 1-.7-.354A30.053 30.053 0 0 1 0 30a30.056 30.056 0 0 1 6.774-18.985.967.967 0 0 1 1.433-.071l18.372 18.372a.967.967 0 0 1 0 1.368L8.207 49.056a.966.966 0 0 1-.684.284z" fill="#2978AC"/><path d="M9.31 31.265h1.858v-2.09l-1.859 2.09zm5.559 1.905H13.21v1.796s0 .093-.092.093h-1.874c-.077 0-.077-.062-.077-.093v-1.75l-.031-.046H5.299c-.062-.015-.093-.031-.093-.077 0-.016.015-.032.031-.063.79-.882 7.386-8.051 7.804-8.531.032-.031.062-.047.093-.047.062 0 .077.108.077.232v6.52s.016.061.031.061h1.611c.047 0 .047.047.047.047v1.812c0 .046-.031.046-.031.046z" fill="#2978AC"/><path d="M13.083 52.392A28.124 28.124 0 0 0 30 58.065a28.122 28.122 0 0 0 16.916-5.673L30 35.474 13.083 52.392zM30 60a30.059 30.059 0 0 1-18.984-6.773.968.968 0 0 1-.072-1.433L29.316 33.42a.997.997 0 0 1 1.368 0l18.372 18.373a.968.968 0 0 1-.072 1.433A30.056 30.056 0 0 1 30 60z" fill="#154771"/><path d="M30.364 54.407a3.966 3.966 0 0 1-.603.047c-1.084 0-2.107-.403-2.788-1.286-.155-.2-.434-.541-.434-.696 0-.016 0-.031.016-.047.495-.402.945-.929 1.44-1.316.03-.015.046-.03.046-.03.016 0 .016.015.032.046.217.588.743 1.13 1.347 1.331.14.047.294.062.433.062.388 0 .744-.14 1.038-.371.325-.248.449-.682.449-1.115 0-.109 0-.217-.016-.325-.077-.589-.65-1.007-1.16-1.193a2.029 2.029 0 0 0-.744-.14c-.372 0-.743.094-1.068.249-.062 0-.078-.047-.078-.094a.29.29 0 0 1 .031-.108c.527-1.084 1.595-3.314 1.595-3.314h-3.237l-.046-.092v-1.796a.09.09 0 0 1 .093-.094h6.21c.061 0 .077.016.077.063a.47.47 0 0 1-.047.17s-1.115 2.478-1.687 3.623c.495.248 1.006.496 1.409.96.526.604.79 1.394.79 2.215 0 .278-.032.557-.094.82-.31 1.363-1.734 2.277-3.004 2.431" fill="#154771"/><path d="M35.474 30l16.917 16.917A28.122 28.122 0 0 0 58.064 30a28.124 28.124 0 0 0-5.673-16.917L35.474 30zm17.003 19.34a.968.968 0 0 1-.684-.284L33.42 30.685a.968.968 0 0 1 0-1.37l18.372-18.371a.97.97 0 0 1 1.434.071A30.054 30.054 0 0 1 60 30a30.052 30.052 0 0 1-6.774 18.985.967.967 0 0 1-.7.354l-.049.001z" fill="#2978AC"/><path d="M52.406 35.013s0 .046-.093.046h-5.947c-.046 0-.061-.015-.061-.046 0-.093.139-.28.139-.28l3.422-6.038c.14-.31.325-.635.325-.991 0-.109-.016-.217-.046-.326-.124-.325-.402-.634-.744-.712a1.558 1.558 0 0 0-.37-.046c-1.147 0-1.89 1.316-2.525 2.137-.031.015-.062.031-.078.031-.046 0-.062-.047-.062-.17v-2.649c.744-.774 1.75-1.3 2.819-1.3.2 0 .418.03.62.061.82.155 1.61.713 2.09 1.503.263.433.387.96.387 1.47 0 .604-.155 1.208-.434 1.72l-1.982 3.592h2.493c.031 0 .047.078.047.078v1.92z" fill="#2978AC"/><path d="M13.083 7.609L30 24.526 46.916 7.609A28.121 28.121 0 0 0 30 1.935 28.124 28.124 0 0 0 13.083 7.61M30 26.862a.968.968 0 0 1-.684-.283L10.944 8.206a.966.966 0 0 1 .071-1.433A30.057 30.057 0 0 1 30 0a30.056 30.056 0 0 1 18.985 6.773.967.967 0 0 1 .07 1.433L30.686 26.58a.967.967 0 0 1-.685.283" fill="#154771"/><path d="M30.976 16.522h-1.92c-.062 0-.078-.062-.078-.062V7.803s1.27-1.053 1.92-1.564c.031-.015.047-.03.062-.03.031 0 .062.046.062.124V16.46c0 .03 0 .062-.046.062" fill="#154771"/></g>
    </symbol>

    <symbol id="svg-afterpay-no-fees" viewBox="0 0 54 52">
        <title>afterpay no fees</title>
        <g fill="none" fill-rule="evenodd"><path d="M35.813 51.674c-.785 0-1.539-.45-1.89-1.215l-1.942-4.217a25.67 25.67 0 0 1-11.176-.158l-2.014 4.374a2.074 2.074 0 0 1-2.766 1.02l-5.15-2.424a2.086 2.086 0 0 1-1.079-1.187c-.19-.529-.166-1.1.07-1.61l2.028-4.405c-4.34-3.412-6.813-8.157-6.813-13.132 0-7.035 4.951-13.48 12.614-16.417a.96.96 0 0 1 1.244.566.978.978 0 0 1-.56 1.257C11.474 16.775 7.01 22.502 7.01 28.72c0 4.58 2.425 8.966 6.652 12.032.376.274.507.78.311 1.204l-2.359 5.124a.155.155 0 0 0 .075.206l5.15 2.424a.154.154 0 0 0 .205-.075l2.35-5.105a.96.96 0 0 1 1.125-.53 23.79 23.79 0 0 0 11.789.172.963.963 0 0 1 1.096.538l2.268 4.925c.035.077.126.11.203.076l5.151-2.425a.156.156 0 0 0 .075-.206l-2.162-4.695a.981.981 0 0 1 .341-1.223c2.495-1.678 4.466-3.837 5.698-6.247a.963.963 0 0 1 .857-.527h5.623a.153.153 0 0 0 .153-.154v-8.1a.153.153 0 0 0-.153-.154h-4.505a.966.966 0 0 1-.93-.72c-.922-3.422-3.239-6.56-6.526-8.833a.976.976 0 0 1-.404-.982 37.419 37.419 0 0 1 1.93-6.78c-2.325.836-4.008 2.26-5.08 3.422a.958.958 0 0 1-1.363.047.983.983 0 0 1-.047-1.378c1.537-1.666 4.173-3.8 7.996-4.51a.962.962 0 0 1 .945.375c.22.296.255.691.091 1.022-.016.034-1.58 3.222-2.459 7.547 3.168 2.34 5.469 5.438 6.565 8.84h3.787c1.148 0 2.082.944 2.082 2.105v8.099c0 1.16-.934 2.104-2.082 2.104h-5.05c-1.264 2.267-3.106 4.31-5.377 5.97l1.818 3.95a2.119 2.119 0 0 1-1.008 2.796l-5.152 2.424a2.048 2.048 0 0 1-.875.196" fill="#154771"/><path d="M6.207 27.581a.978.978 0 0 1-.278-.04C2.121 26.384-.2 23.15.013 19.3c.2-3.57 2.463-6.398 5.767-7.203a.964.964 0 0 1 1.163.719.976.976 0 0 1-.711 1.176c-2.458.6-4.142 2.725-4.293 5.417-.123 2.216.993 5.186 4.544 6.263a.977.977 0 0 1-.276 1.91" fill="#154771"/><path d="M41.026 24.722c0 1.248-1.002 2.26-2.236 2.26-1.234 0-2.235-1.012-2.235-2.26 0-1.248 1.001-2.26 2.235-2.26s2.236 1.012 2.236 2.26M22.368 19.06a.95.95 0 0 1-.435-.105c-3.353-1.717-5.436-5.142-5.436-8.94C16.497 4.493 20.941 0 26.403 0c5.462 0 9.906 4.493 9.906 10.015 0 3.661-1.975 7.028-5.153 8.789a.959.959 0 0 1-1.308-.386.98.98 0 0 1 .381-1.324 8.086 8.086 0 0 0 4.151-7.079c0-4.447-3.578-8.065-7.977-8.065-4.398 0-7.977 3.618-7.977 8.065 0 3.059 1.678 5.818 4.378 7.201a.98.98 0 0 1 .425 1.31.963.963 0 0 1-.861.535" fill="#2978AC"/><path d="M26.56 6.668a.646.646 0 0 1-.643-.65v-1.68c0-.36.288-.65.643-.65.356 0 .643.29.643.65v1.68c0 .359-.287.65-.643.65M26.56 16.273a.646.646 0 0 1-.643-.65v-1.529c0-.359.288-.65.643-.65.356 0 .643.291.643.65v1.529c0 .36-.287.65-.643.65" fill="#2978AC"/><path d="M26.343 14.744c-1.327 0-2.756-.89-2.756-2.847 0-.36.287-.65.642-.65.356 0 .643.29.643.65 0 1.473 1.226 1.547 1.471 1.547.066 0 1.62-.013 1.62-1.09 0-.877-.375-1.087-1.457-1.564l-.205-.09c-1.203-.538-2.385-1.065-2.385-2.844 0-1.441 1.072-2.489 2.55-2.489 1.53 0 2.728 1.325 2.728 3.016 0 .36-.288.65-.643.65a.646.646 0 0 1-.643-.65c0-.978-.62-1.716-1.443-1.716-.756 0-1.264.478-1.264 1.189 0 .887.402 1.11 1.56 1.628l.258.114c1.045.461 2.23.984 2.23 2.756 0 1.643-1.506 2.39-2.906 2.39" fill="#2978AC"/><path d="M32.643 20.235a.954.954 0 0 1-.652-.257c-2.763-2.56-7.919-2.565-10.609-.008a.956.956 0 0 1-1.363-.042.982.982 0 0 1 .043-1.378c3.422-3.252 9.729-3.257 13.233-.008.392.363.419.98.058 1.377a.957.957 0 0 1-.71.316" fill="#154771"/></g>
    </symbol>

    <symbol id="svg-afterpay-orders" viewBox="0 0 50 52">
        <title>afterpay orders</title>
        <g fill="none" fill-rule="evenodd"><path d="M26.738 44.817c.168.357.328.7.476 1.021 1.244 2.71 3.183 4.02 5.814 3.878 3.03-.16 6.68-1.207 11.158-3.205 2.608-1.162 3.209-1.821 3.383-3.71.065-.702.115-1.94.137-3.307-1.185.417-2.435.86-3.685 1.302-3.613 1.28-7.35 2.605-9.33 3.24-.281.09-.571.19-.87.295-1.9.663-4.322 1.509-7.083.486zm6.342 5.872h.006-.006zm-.432.986c-3.207 0-5.69-1.727-7.204-5.022a163.32 163.32 0 0 0-1.878-3.923.974.974 0 1 1 1.505-1.175c3.133 2.673 5.661 1.79 8.108.935.316-.11.622-.218.918-.312 1.953-.625 5.675-1.944 9.274-3.22 1.722-.61 3.446-1.221 5-1.765a.976.976 0 0 1 1.296.922c-.003 1.602-.053 3.727-.159 4.866-.27 2.92-1.676 4.04-4.529 5.312-4.7 2.095-8.576 3.198-11.849 3.37a9.284 9.284 0 0 1-.482.012zM6.509 49.725h1.137c-.474-12.84-.322-22.451.443-27.908-.55-.449-1.062-.84-1.556-1.188a47.02 47.02 0 0 0-1.282-.864 96.843 96.843 0 0 0-.38-.252c1.366 6.349 1.555 16.066 1.638 30.212m2.15 1.95H5.54a.975.975 0 0 1-.975-.97c-.092-16.733-.29-27.326-2.28-33.324a.975.975 0 0 1 1.572-1.036c.718.64 1.566 1.199 2.465 1.79.446.295.895.591 1.332.9.662.466 1.35 1 2.104 1.634.261.22.389.56.336.898-.838 5.359-.997 15.42-.463 29.095a.978.978 0 0 1-.973 1.013" fill="#154771"/><path d="M34.393 43.107h.007-.007zm-9.172-1.426c3.063 2.518 5.55 1.65 7.958.809.316-.11.622-.217.918-.312 1.953-.625 5.675-1.944 9.274-3.22 1.483-.525 2.97-1.052 4.346-1.535-.002-.32-.007-.625-.014-.907-.059-2.605-.059-2.605-2.288-3.348-1.93-.643-7.622-2.364-9.61-2.964-1.245 1.865-3.589 4.904-7.63 4.06-3.815-.796-5.08-3.43-6.684-6.766l-.282-.585c-.366-.76-8.721-17.994-13.66-24.586-2.371 2.02-5.601 6.938-5.601 9.965 0 2.97 2.02 4.298 4.361 5.836.45.296.905.595 1.346.907 4.494 3.17 9.313 8.721 12.095 12.816 1.824 2.684 3.965 6.79 5.471 9.83zm4.176 3.612c-1.7 0-3.58-.54-5.59-2.253a.979.979 0 0 1-.24-.31c-1.215-2.457-3.535-6.995-5.428-9.782-2.683-3.95-7.313-9.29-11.606-12.32-.425-.3-.86-.585-1.294-.87C2.784 18.144 0 16.314 0 12.292 0 8.197 4.428 1.923 7.209.152A.972.972 0 0 1 8.485.36c4.977 6.104 14.092 24.907 14.478 25.704l.284.59c1.529 3.182 2.452 5.103 5.326 5.703 2.846.593 4.539-1.585 5.9-3.674l.102-.155a.973.973 0 0 1 1.095-.4c.325.097 7.989 2.4 10.36 3.19 3.204 1.07 3.548 1.931 3.621 5.154.012.493.016 1.056.016 1.644a.975.975 0 0 1-.653.919 1269.74 1269.74 0 0 0-4.993 1.763c-3.613 1.28-7.35 2.604-9.33 3.239-.281.09-.571.19-.87.295-1.261.441-2.754.962-4.424.962z" fill="#2978AC"/></g>
    </symbol>

    <symbol id="svg-afterpay-shipping" viewBox="0 0 72 44">
        <title>afterpay shipping</title>
        <g fill="none" fill-rule="evenodd"><path d="M70.81 35.784H66.44a.972.972 0 1 1 0-1.946h3.399V19.83l-8.328-9.344H49.73v23.352h5.117a.973.973 0 1 1 0 1.946h-6.09a.972.972 0 0 1-.973-.973V9.513c0-.537.435-.973.973-.973h13.189c.277 0 .541.12.726.326l8.865 9.946a.976.976 0 0 1 .247.647v15.352a.972.972 0 0 1-.973.973M20.18 35.784h-9.396a.973.973 0 1 1 0-1.946h9.397a.972.972 0 1 1 0 1.946" fill="#154771"/><path d="M48.758 35.784h-16.98a.972.972 0 1 1 0-1.946h16.007V1.946h-37a.973.973 0 1 1 0-1.946h37.973c.537 0 .973.436.973.973V34.81a.972.972 0 0 1-.973.973" fill="#154771"/><path d="M53.514 20.324h9.62V18.77l-3.453-4.067h-6.167v5.621zm10.594 1.946H52.54a.972.972 0 0 1-.973-.973V13.73c0-.538.435-.973.973-.973h7.59c.285 0 .557.125.741.343l3.978 4.683c.15.176.23.399.23.63v2.884a.972.972 0 0 1-.972.973z" fill="#2978AC"/><path d="M19.946 10.054H5.514a.972.972 0 1 1 0-1.946h14.432a.972.972 0 1 1 0 1.946M25.378 17.27H9.405a.972.972 0 1 1 0-1.946h15.973a.972.972 0 1 1 0 1.946M21.162 24.892H.973a.972.972 0 1 1 0-1.946h20.19a.972.972 0 1 1 0 1.946" fill="#154771"/><path d="M25.98 31.426a5.062 5.062 0 0 0-5.057 5.056 5.062 5.062 0 0 0 5.057 5.057 5.062 5.062 0 0 0 5.057-5.057 5.062 5.062 0 0 0-5.057-5.056m0 12.06a7.01 7.01 0 0 1-7.003-7.004 7.01 7.01 0 0 1 7.003-7.002 7.01 7.01 0 0 1 7.003 7.002 7.01 7.01 0 0 1-7.003 7.003" fill="#2978AC"/><path d="M28.015 36.482a2.035 2.035 0 1 1-4.07 0 2.035 2.035 0 0 1 4.07 0" fill="#154771"/><path d="M60.641 31.426a5.062 5.062 0 0 0-5.056 5.056 5.062 5.062 0 0 0 5.056 5.057 5.062 5.062 0 0 0 5.057-5.057 5.062 5.062 0 0 0-5.057-5.056m0 12.06a7.01 7.01 0 0 1-7.002-7.004 7.01 7.01 0 0 1 7.002-7.002 7.01 7.01 0 0 1 7.003 7.002 7.01 7.01 0 0 1-7.003 7.003" fill="#2978AC"/><path d="M62.676 36.482a2.035 2.035 0 1 1-4.07 0 2.035 2.035 0 0 1 4.07 0" fill="#154771"/></g>
    </symbol>

    <symbol id="svg-afterpay-quarter-circle" viewBox="0 0 30 30">
        <title>afterpay first payment</title>
        <defs><circle id="a" cx="15" cy="15" r="15"/></defs><g fill="none" fill-rule="evenodd"><use fill="#FFF" xlink:href="#a"/><use fill="#CCC" xlink:href="#a"/><path fill="#2978AC" d="M30 15c0-8.284-6.716-15-15-15v15h15z"/></g>
    </symbol>

    <symbol id="svg-afterpay-half-circle" viewBox="0 0 30 30">
        <title>afterpay second payment</title>
        <defs><circle id="a" cx="15" cy="15" r="15"/></defs><g fill="none" fill-rule="evenodd"><use fill="#FFF" xlink:href="#a"/><use fill="#CCC" xlink:href="#a"/><path fill="#2978AC" d="M15 30c8.284 0 15-6.716 15-15 0-8.284-6.716-15-15-15v30z"/></g>
    </symbol>

    <symbol id="svg-afterpay-three-quarters-circle" viewBox="0 0 30 30">
        <title>afterpay third payment</title>
        <defs><circle id="a" cx="15" cy="15" r="15"/></defs><g fill="none" fill-rule="evenodd"><use fill="#FFF" xlink:href="#a"/><use fill="#CCC" xlink:href="#a"/><path fill="#2978AC" d="M15 0c8.284 0 15 6.716 15 15 0 8.284-6.716 15-15 15-8.284 0-15-6.716-15-15h15V0z"/></g>
    </symbol>

    <symbol id="svg-afterpay-complete-circle" viewBox="0 0 30 30">
        <title>afterpay final payment</title>
        <g fill="none" fill-rule="evenodd"><circle cx="15" cy="15" r="15" fill="#2978AC"/><path fill="#FFF" fill-rule="nonzero" d="M11.657 14.665a1 1 0 1 0-1.314 1.507l2.959 2.582a1 1 0 0 0 1.469-.17l5.04-7a1 1 0 1 0-1.622-1.168l-4.4 6.109-2.132-1.86z"/></g>
    </symbol>

    <symbol id="svg-vip-locked-icon" viewBox="0 0 30 30">
        <title>vip locked benefit</title>
        <path d="M21.875 14.965v-4.022c0-4.533-3.526-8.207-7.875-8.207-4.35 0-7.875 3.674-7.875 8.207v4.022A12.94 12.94 0 0 1 13 13h2c2.524 0 4.88.72 6.875 1.965zm2.604 2.139A12.955 12.955 0 0 1 28 26c0 7.18-5.82 13-13 13h-2C5.82 39 0 33.18 0 26c0-3.441 1.337-6.57 3.52-8.896-.013-.228-.02-.458-.02-.69v-5.471C3.5 4.899 8.201 0 14 0s10.5 4.9 10.5 10.943v5.47c0 .233-.007.463-.02.69zm-8.373 8.122a3.406 3.406 0 0 0 1.245-2.636v-.177a3.413 3.413 0 1 0-6.827 0v.177c0 1.061.484 2.01 1.244 2.636l-2.033 5.562a1 1 0 0 0 .94 1.343H17.2a1 1 0 0 0 .94-1.343l-2.034-5.562z" fill="#ffffff" fill-rule="evenodd"/>
    </symbol>

    <symbol id="svg-cq-shipping-icon" viewBox="0 0 44 44">
        <title>DSW shipping icon</title>
        <g fill="none" fill-rule="evenodd">
            <circle cx="22" cy="22" r="22" fill="#000" fill-rule="nonzero"/>
            <path fill="#FFF" fill-rule="nonzero"
                  d="M29.273 18.25h-2.728V14.5H13.818c-1 0-1.818.844-1.818 1.875v10.313h1.818c0 1.556 1.218 2.812 2.727 2.812 1.51 0 2.728-1.256 2.728-2.813h5.454c0 1.557 1.218 2.813 2.728 2.813 1.509 0 2.727-1.256 2.727-2.813H32V22l-2.727-3.75zm-12.728 9.844c-.754 0-1.363-.628-1.363-1.407 0-.778.609-1.406 1.363-1.406.755 0 1.364.628 1.364 1.407 0 .778-.609 1.406-1.364 1.406zm12.273-8.438L30.6 22h-4.055v-2.344h2.273zm-1.363 8.438c-.755 0-1.364-.628-1.364-1.407 0-.778.609-1.406 1.364-1.406.754 0 1.363.628 1.363 1.407 0 .778-.609 1.406-1.363 1.406z"/>
        </g>
    </symbol>

    <symbol id="svg-cq-free-gift-icon" viewBox="0 0 44 44">
        <g fill="none" fill-rule="evenodd">
            <circle cx="22" cy="22" r="22" fill="#000" fill-rule="nonzero"/>
            <path fill="#FFF" fill-rule="nonzero"
                  d="M19.327 13c-1.718-.009-3.39 1.623-2.627 3.65h-2.882A1.806 1.806 0 0 0 12 18.444v1.794c0 .495.407.897.91.897h8.18v-2.691h1.82v2.69h8.18c.503 0 .91-.401.91-.896v-1.794c0-.99-.814-1.794-1.818-1.794H27.3c1.064-2.932-2.936-5.004-4.782-2.475l-.518.682-.518-.7c-.573-.798-1.364-1.148-2.155-1.157zm-.054 1.857c.809 0 1.218.968.645 1.533s-1.554.162-1.554-.637c0-.495.407-.896.909-.896zm5.454 0c.81 0 1.218.968.646 1.533-.573.565-1.555.162-1.555-.637 0-.495.407-.896.91-.896zM12.91 22.03v7.175c0 .99.814 1.794 1.818 1.794h14.546a1.806 1.806 0 0 0 1.818-1.794v-7.175h-8.182v7.175h-1.818v-7.175h-8.182z"/>
        </g>
    </symbol>


    <symbol id="svg-cq-discount-icon" viewBox="0 0 44 44">
        <g fill="none" fill-rule="evenodd">
            <circle cx="22" cy="22" r="22" fill="#000" fill-rule="nonzero"/>
            <path fill="#FFF" fill-rule="nonzero"
                  d="M30.469 21.622l-8.1-8.1A1.789 1.789 0 0 0 21.1 13h-6.3c-.99 0-1.8.81-1.8 1.8v6.3c0 .495.198.945.531 1.278l8.1 8.1c.324.324.774.522 1.269.522a1.76 1.76 0 0 0 1.269-.531l6.3-6.3A1.76 1.76 0 0 0 31 22.9c0-.495-.207-.954-.531-1.278zM16.15 17.5c-.747 0-1.35-.603-1.35-1.35 0-.747.603-1.35 1.35-1.35.747 0 1.35.603 1.35 1.35 0 .747-.603 1.35-1.35 1.35z"/>
        </g>
    </symbol>

    <symbol id="svg-usa-flag" viewBox="0 0 42 32">
        <title>usa flag icon</title>
        <g fill="none"><path fill="#B22234" d="M0 0h42v22H0z"/><path fill="#FFF" d="M0 3.385V1.692h42v1.693H0zm42 1.692v1.692H0V5.077h42zM0 10.154V8.462h42v1.692H0zm42 1.692v1.692H0v-1.692h42zM0 16.923v-1.692h42v1.692H0zm42 1.692v1.693H0v-1.693h42z"/><path fill="#3C3B6E" d="M0 0h16.72v11.846H0z"/><g fill="#FFF"><path d="M1.393.508l.398 1.224L.75.975h1.287l-1.042.757zm0 2.369L1.791 4.1.75 3.345h1.287L.995 4.1zm0 2.369l.398 1.225L.75 5.714h1.287L.995 6.47zm0 2.369l.398 1.225L.75 8.083h1.287L.995 8.84zM1.393 9.985l.398 1.224-1.041-.757h1.287l-1.042.757zM2.787 1.692l.398 1.225-1.042-.757H3.43l-1.041.757zm0 2.37l.398 1.224-1.042-.757H3.43l-1.041.757zm0 2.368l.398 1.225L2.143 6.9H3.43l-1.041.756zm0 2.37l.398 1.225-1.042-.757H3.43l-1.041.757zM4.18.508l.398 1.224L3.536.975h1.288l-1.042.757zm0 2.369L4.578 4.1l-1.042-.756h1.288L3.782 4.1zm0 2.369l.398 1.225-1.042-.757h1.288l-1.042.757zm0 2.369l.398 1.225-1.042-.757h1.288l-1.042.757zM4.18 9.985l.398 1.224-1.042-.757h1.288l-1.042.757zM5.573 1.692l.398 1.225L4.93 2.16h1.287l-1.042.757zm0 2.37l.398 1.224L4.93 4.53h1.287l-1.042.757zm0 2.368l.398 1.225L4.93 6.9h1.287l-1.042.756zm0 2.37l.398 1.225-1.041-.757h1.287l-1.042.757zM6.967.508l.398 1.224L6.323.975H7.61l-1.041.757zm0 2.369L7.365 4.1l-1.042-.756H7.61L6.57 4.1zm0 2.369l.398 1.225-1.042-.757H7.61l-1.04.756zm0 2.369l.398 1.225-1.042-.757H7.61l-1.04.757zM6.967 9.985l.398 1.224-1.042-.757H7.61l-1.041.757zM8.36 1.692l.398 1.225-1.042-.757h1.288l-1.042.757zm0 2.37l.398 1.224-1.042-.757h1.288l-1.042.757zm0 2.368l.398 1.225L7.716 6.9h1.288l-1.042.756zm0 2.37l.398 1.225-1.042-.757h1.288l-1.042.757zM9.753.508l.398 1.224L9.11.975h1.287l-1.042.757zm0 2.369l.398 1.224-1.041-.756h1.287L9.355 4.1zm0 2.369l.398 1.225-1.041-.757h1.287l-1.042.757zm0 2.369l.398 1.225-1.041-.757h1.287l-1.042.757zM9.753 9.985l.398 1.224-1.041-.757h1.287l-1.042.757zM11.147 1.692l.398 1.225-1.042-.757h1.287l-1.041.757zm0 2.37l.398 1.224-1.042-.757h1.287l-1.041.757zm0 2.368l.398 1.225-1.042-.756h1.287l-1.041.756zm0 2.37l.398 1.225-1.042-.757h1.287l-1.041.757z"/><g><path d="M12.54.508l.398 1.224-1.042-.757h1.288l-1.042.757zm0 2.369l.398 1.224-1.042-.756h1.288l-1.042.756zm0 2.369l.398 1.225-1.042-.757h1.288l-1.042.757zm0 2.369l.398 1.225-1.042-.757h1.288l-1.042.757zM12.54 9.985l.398 1.224-1.042-.757h1.288l-1.042.757zM13.933 1.692l.398 1.225-1.041-.757h1.287l-1.042.757zm0 2.37l.398 1.224-1.041-.757h1.287l-1.042.757zm0 2.368l.398 1.225L13.29 6.9h1.287l-1.042.756zm0 2.37l.398 1.225-1.041-.757h1.287l-1.042.757z"/></g><g><path d="M15.327.508l.398 1.224-1.042-.757h1.287l-1.041.757zm0 2.369l.398 1.224-1.042-.756h1.287l-1.04.755zm0 2.369l.398 1.225-1.042-.757h1.287l-1.041.757zm0 2.369l.398 1.225-1.042-.757h1.287l-1.041.757zM15.327 9.985l.398 1.224-1.042-.757h1.287l-1.041.757z"/></g></g></g>
    </symbol>

    <symbol id="svg-canada-flag" viewBox="0 0 42 32">
        <title>canada flag icon</title>
        <g fill="none"><path fill="#D52C1E" d="M0 0h11l.454.454h21.092L33 0h11v22H33l-.454-.454H11.454L11 22H0z"/><path fill="#FFF" d="M11 0h22v22H11V0zm11.413 20.304l-.207-3.955a.435.435 0 0 1 .509-.45l3.937.693-.532-1.467a.298.298 0 0 1 .092-.335l4.313-3.492-.972-.454a.298.298 0 0 1-.155-.362l.852-2.622-2.484.527a.298.298 0 0 1-.335-.174l-.481-1.132-1.939 2.081a.298.298 0 0 1-.508-.261l.934-4.822-1.498.866a.298.298 0 0 1-.417-.123L22 1.833l-1.522 2.989a.298.298 0 0 1-.417.123l-1.498-.866.934 4.822a.298.298 0 0 1-.508.261l-1.939-2.08-.481 1.131a.298.298 0 0 1-.335.175L13.75 7.86l.852 2.622a.298.298 0 0 1-.155.362l-.972.454 4.313 3.492c.099.08.136.215.092.335l-.532 1.467 3.937-.692a.435.435 0 0 1 .509.449l-.207 3.955h.826z"/></g>
    </symbol>

    <symbol id="svg-eic-account-created-signed-in" viewBox="0 0 24 24">
        <title>enrollment in checkout - account created</title>
        <g fill="none" fill-rule="evenodd"><circle cx="12" cy="12" r="12" fill="#13BB5B"/><path fill="#FFF" fill-rule="nonzero" d="M10.071 17.25L5.25 12.212l1.36-1.421 3.461 3.607 7.32-7.648 1.359 1.43z"/></g>
    </symbol>

    <symbol id="svg-drop-down" viewBox="0 0 8 5">
        <title>drop down</title>
        <path fill="#FFF" id="a" d="M0 5l4-5 4 5z"/>
    </symbol>

    <symbol id="svg-drop-down-black" viewBox="0 0 8 5">
        <title>drop down black</title>
        <path fill="#000" id="a" d="M0 5l4-5 4 5z"/>
    </symbol>


    <symbol id="svg-remove-icon" width="14px" height="18px" viewBox="0 0 12 14">
        <title>DSW cancel icon</title>
        <g stroke="none" stroke-width="1" fill="none" fill-rule="evenodd">
            <g transform="translate(-913.000000, -393.000000)">
                <g id="Group-31" transform="translate(96.000000, 390.000000)">
                    <g id="System-Icon/Trash/18px" transform="translate(814.000000,1.000000)">
                        <rect id="Icon-Background" fill="#FFFFFF" fill-rule="evenodd" opacity="0" x="0" y="0" width="18"
                              height="18"></rect>
                        <path
                            d="M4.28571429,14.4444444 C4.28571429,15.3 4.99285714,16 5.85714286,16 L12.1428571,16 C13.0071429,16 13.7142857,15.3 13.7142857,14.4444444 L13.7142857,5.11111111 L4.28571429,5.11111111 L4.28571429,14.4444444 Z M14.5,2.77777778 L11.75,2.77777778 L10.9642857,2 L7.03571429,2 L6.25,2.77777778 L3.5,2.77777778 L3.5,4.33333333 L14.5,4.33333333 L14.5,2.77777778 Z"
                            id="Shape" fill="#999999" fill-rule="nonzero"></path>
                    </g>
                </g>
            </g>
        </g>
    </symbol>

</svg>
